<?xml version="1.0" encoding="UTF-8"?>
<svg id="Layer_2" data-name="Layer 2" xmlns="http://www.w3.org/2000/svg" viewBox="0 0 235.49 135.19">
  <defs>
    <style>
      .cls-1 {
        fill: #231f20;
      }

      .cls-2 {
        fill: #fff;
      }
    </style>
  </defs>
  <g id="Layer_1-2" data-name="Layer 1">
    <g>
      <path d="M141.23,101.62c-2.99-.15-6.6.49-8.65-2.43-1.73-2.48-1.5-8.83-.29-11.54,2.3-5.14,14.25-8.32,19.4-10.41l3.23-1.8c-5.46,1.99-12.83,3.44-17.94,6.03-.63.32-4.37,2.77-4.63,3.13-1.92,2.56-1.09,9.29-2.98,10.61-.8.56-1.79.26-2.66.57-3.9,1.39-8.94,3.94-12.78,4.94-1.12.29-4.21.87-4.75-.31-.23-.5.58-2.42-1.2-2.42-.82,0-2.53,2.44-3.82,3.04-3.02,1.41-10.59,2.91-13.86,2.57-8.8-.92-18.02-.59-26.92-1.69-.65-.08-2.28-.05-1.92-1.09h21.35c.08-.87.13-1.1-.69-1.53-1.13-.58-5.33-1.01-6.76-1.07-2.76-.11-6.18.61-8.8.55-3.34-.07-8.66-.77-12.09-1.24-1.38-.19-3.07-.3-4.29-.95,2.19-1.89,7.85-1.76,10.7-1.44,1.18.13,1.69.68,2.43.79,1.93.28,3.92.32,5.8.85.21-1.15-.28-.66-.88-.91-3.45-1.42-7.57-2.72-9.98-5.75-4.92-6.19-3.07-17.62,2.19-23.17.74-.78,7.23-6.22,7.76-6.37,1.49-.41,4.15,3.15,5.79,4.13,4.37,2.58,7.4,1.95,11.79-.21,5.28-2.6,8.03-7.13,10.79-12.17,3.09-5.63,3.43-10.28,2.75-16.59-.29-2.73-1.98-2.44-.47-5.71,1.18-2.57,4.1-4.11,6.3-5.76,5.24,2.74,11.05,4.15,16.88,5.11l11.73-4.69c.66,0,6.54,4.57,7.46,5.4,2.5,2.26,4.59,5.08,5.92,8.18,2.23,5.18,4.92,11.16,4.97,16.79.05,5.77-2.27,8.51,3.41,12.71,2.31,1.7,5.17,1.99,6.58,5.1.02,2.15-2.63,2.26-3.45,3.07-.16.16-1.32,2.28-1.53,2.7-1.22,2.5-3.49,11.49-4.6,12.73-.56.62-5.24,2.09-6.47,3.6-.65.79-.28,2.02-.86,3.17-.64,1.27-2.82,2.62-3.98,3.47.97.05,1.87-.1,2.86.17.91.25.64,1.35,1.36,1.03,2.11-.93-1.45-1.58-1.3-2.62l2.57-2.51c1.46-.04,2.68,2.01,2.61,3.33l-2.46,2.82c-.07.17,2.02.79,1.61,1.81-1.54.56-2.23-1.41-2.49-1.56-.28-.16-.86.32-1.27.24-.51-.09-.94-.77-1.46-.94-1.3-.41-2.78.22-3.63,1.25.64.53,1.1,1.17,1.6,1.81-2.53.32-3.88-1.7-5.63.2,1.32,2.01,2.43,1.2,4.42,1.01l-1.21,2.01c2.46,1.37,3.21-.56,5.64-.81l-2.52-1.19c-.47-.25-.47-.92-.7-1.22,1.27-.16,2.32-1.17,3.63-1.2l-1.61,1.21c.35,2.54,3.22.35,4.83.4.13.1-1.6,2.59-1.84,2.79-.89.74-2.81.73-2.94,2.31s1.83,1.21,2.76.94l-3.62,3.42,2.41,1.21c-2.11,1.85-3.8-1.28-6.03.61-.73,1.02,4.17,3.02,5.23,2.01-1.27,2.35-3.62,1.55-5.61.57-.87-.43-1.07-1.87-2.44-.97v-1.22c-1.99.85-3.19-.45-5.03-.81-.4.49,1.5,1.26,1.8,1.42,2.55,1.35,5.59,1.96,7.66,3.82-2.89.44-5.27-1.42-7.73-2.13-2.54-.74-5.68-1.65-8.2-2.28-1.01-.25-.03,1.4-.58,2,2.06-.26,7.37-.56,6.85,2.42.98.25,1.32-1.29,2.14-1.16.24.04,3.39,1.81,4.3,2.17,1.26.49,3.04,0,3.84,1.83.23.53-.24,1.12-.21,1.17.12.18,4,1.19,4.22,1.19,2.16.03,1.57-1.92,2.11-3.1.43-.93,6.67-3.23,6.96-2.91l.4,1.21c-.3-2.08,2.21-3.12,3.92-3.12.52,0,.83.61,1.35.53.36-.06,6.29-2.78,6.57-3,.46-.38.1-1.24.65-1.86,1.4-1.58,12.53-5.2,15.31-6.45.87-.39,2.17-1.63,2.73-1.75.89-.2,1.16.82,2.11.6.4-.09,6.17-3.03,6.43-3.28.78-.74.57-1.79,1.1-2.23,1.1-.92,4.68-2.09,6.17-1.58.03-2.26,1.37-4.18,1.89-6.37.77-3.21,1.06-6.41,1.93-9.75,1.05-4.02,6.67-17.89,6.16-20.63-.09-.49-.8-1.17-.78-1.87l-1.33-.07c-15.34,5.49-31.75,8.56-46.26,16.1-7.04,13.83-10.95,28.99-15.51,43.81l-1.09,1.29-1-.77-.41,2.42-1.15-.93c2.07-6.16,4.05-12.39,5.47-18.72,2.84-6.78,4.86-13.88,7.46-20.74.71-1.86,2.56-7.13,3.78-8.31,1.38-1.34,7.35-3.8,9.43-4.67,14.72-6.16,30.14-10.6,45.44-15.06l.72,1.96c-3.53,11.88-8.54,23.3-11.13,35.45,7.72,1.03,15.42.54,23.18.39l7.84,1.22c-7.39,1.51-15.35.63-22.75,1.22-.81.06-2.87.3-3.53.5-1.16.35-2.3,1.91-3.93,1.51-.1,1.07-.02.65.6.8,2.89.66,5.4,1.5,8.41,1.27l5.49,1.15c-3.35.8-6.84.11-10.23.45-2.26.22-10.94,2.02-12.96,2.76-1.08.39-1.82,1.44-3,1.64-1.34,1.93,7.64.7,8.05,2.41-4.32.83-9.67-.21-13.8.91-.91.25-8.54,4.1-8.76,4.54,3.39,2.03,7.86.47,11.68,1.41.12.08-.21.51-.4.61-1.29.64-7.42.05-9.47.2-1.14.08-2.17.62-3.27.76-3.9.49-6.96.21-10.23,3.07-.17.69,1.55,1.4,1.81,1.4h9.06c-.05.58-1.79.7-2.26.76-5.14.58-9.87,1.59-14.86,1.98-5.28.41-7.24,3.22-11.56,4.25-.67.16-3.21.54-3.81.6-.53.05-.96-.68-1.56-.74-1.28-.13-1.9.66-4-.02-5.16-1.68-5.44-2.66-11.28-2.78-1.35-.03-2.81-.98-4.25-.82-.36-1.56,2.4-.38,2.01-2.01-2.41-.33-5.29-1.97-7.55-2.33-2.41-.38-8.68-.89-11.18-.93-1.95-.03-3.86.73-5.84.43-1.11-.96,3.87-1.9,4.27-1.97.96-.16,2.01-.01,3.07-.15.4-.05,1.61-.12,1.52-.69-1.16,0-2.44-1.12-3.46-1.21-2.38-.21-5.63-.36-8.01-.38-.96,0-2.31.21-2.63-.83.51-.66,5.16.24,5.64-1.21-1.99.6-4.7-2.56-5.52-2.76-.89-.22-3.17.92-4.55-.07l.81-1.8,3.62-1.41c-3.83-.89-8.01-.64-11.84-1.26-.83-.13-2.3-.26-2.66-1.16.71.02,1.4.07,2.11-.11,5.71-1.49,14.69-1.04,20.91-1.73l23.92-7.41c.95.88.34,2.5,1.95,2.76l.25.83-6.04,3.43c.27.56,3.89,1.07,4.59,1.01,1.83-.17,4.41-2.87,6.68-2.41,1.07.95-5.29,3.95-6.29,4.01s-1.81-.41-2.77-.43c-.83-.01-1.61.44-2.39.41-2.29-.08-4.7-2.88-7.26-2.82-.83.02-6.22,1.97-5.86,2.44,3.87.49.88,3.09-1.17,3.43-1.73.29-5.22-3.04-6.08-1.2l4.54,2.7c3.01.91,7.37,1.09,9.56,3.54-3.19-.8-5.67-1.3-8.78-2.3-3.3-1.06-6.41-2.44-9.75-3.34l.81,2.81,1-2.01.61,2.41,2.01-1.61v2.41s1.81-1.2,1.81-1.2l.61,2.01h1.21s.21-1.21.21-1.21l1.21,1.61,1.4-.8.61,1.61,1.4-1.2c-.05,1.35-.35,1.9,1.01,2.41l.8-2,1.21,3.21,1-2.01.61,3.22.6-2.01h1.21s0,2.42,0,2.42c1.08.14,1.02.02,1.41-.81l1.21,1.21,1-.82c.29-.49-3.51-2.47-3.85-2.8-.51-.48-.47-1.11-.58-1.22,3.09.78,6.09,1.93,9.26,2.41l-2.81-1.81c1.21-1.64,2.96.77,4.12.54.27-.05,2.36-1.16,1.52-1.76-2.17-1.54-4.97.28-7.05,1.02l.2-1.21c-.38-.06-.88.08-1.21,0,.27-.4.29-1.05,1.21-1.61-1.48-.35-2.48-1.13-4.03-.4.61,1.21,1.57,1.69,2.82,2.01-1.3,1.92-6.97-.55-4.41-2.6,1.88-1.51,2.83-.91,4.46-1.25,1.05-.21,2.31-1.43,3.36-1.81,5.7-2.09,9.65-2.72,14.73-6.42ZM138.27,44.57c-3.08.11-6.55,1.7-7.69,4.72-.37.98-1.02,4.45-.99,5.42s2.51,4.71,3.34,5.44c3.01,2.65,13.12.05,14.61-3.57.91-2.21,1.09-4.17.2-6.4-1.6-4.02-5.31-5.75-9.48-5.61ZM114.11,60.81c.52-.43,2.57-3.2,2.75-3.89,1.09-4.15-2.3-10.75-6.55-11.6-4.9-.99-12.82,4.21-12.58,9.34.06,1.26,3.13,7.53,4.01,8.09,2.69,1.68,9.93.05,12.36-1.93ZM84.42,92.36c-.03,1.42-1.82,4.35-.43,5.45.17.14.82-.2,1.2,0,1.16.62,2.61,2.03,3.98,2.48,1.19.39,2.83.27,3.81.62.61.22.95.98,1.36,1.06.53.11,9.85-2.97,10.22-3.36,1.4-1.44.31-4.06.37-5.64.12-3.45,1.46-15.84-1.34-17.97-1.37-1.04-9.75-1.34-11.72-1.17-2.39.22-9.2,1.46-9.08,4.62l1.59.86c.3.96-1.44,6.48-1.59,8.01-.13,1.31.55,3.82.38,4.38-.41,1.31-3.71.76-4.2-.55-.52,1.11,2.96,3.53,3.99,3.19l.63-.62-.39-1.36h1.21ZM77.17,82.28c-.35-.61-.59-1.48-1.03-1.98-1.98-2.27-3.77-3.3-6.54-4.34-1.32-.49-2.79-.79-4.11-1.32,1.08,2.15,3.67,2.06,5.51,3.14l6.17,4.5ZM82.41,80.28c-1.12-.44-5.08,3.38-4.83,3.62,1.35,1.16,5.18-3.32,4.83-3.62ZM81.6,84.3c-2.64.45-2.19,5.19.4,5.64l-.4-5.64ZM77.17,93.57c-.39-.43-2.68,2.03-3.4,2.03l-4.25,1.18c1.67-.07,3.44.28,5.06-.37.52-.21,3.3-2.05,2.59-2.85ZM129.14,99.61c-.98-.9-4.89.83-5.92,1.53-.52.35-1.1.45-.93,1.28.79,1.02,5.14-1.11,6.09-1.77.49-.34.98-.02.76-1.04ZM138.81,111.3c-1.58.01-1.35-1.74-2.25-2.39-1.23-.89-5.14-2.24-5.35.23-.17,2.04,4.13.17,5.19.14l-3.22,2.82.26.79c2.27,1.2,3.76.09,5.38-1.6ZM131.16,110.49c-2.09-.42-3.69-2.12-5.64-.21,1.91,1.07,2.83,1.72,5.05,1.01.56-.18.71.25.59-.81ZM143.24,114.12c-2.04-.66-4.12-2.23-5.23.59,1.82,2.19,3.44.96,5.23-.59ZM133.17,116.93c2.25.88,3.81,2.38,5.63-.2-1.78-1.59-4.63-2.69-5.63.2ZM148.08,126.19c.37.33,5.88-1.88,4.83-3.22-1.55,1.1-4.24,1.31-4.83,3.22ZM139.61,126.6c1.38-1.23-5.5-2.36-6.04-2.01-.09.58.71.56,1.12.68,1.63.45,3.33.61,4.91,1.33Z"/>
      <path d="M150.63,27.36c4.6,4.75,9.33,7.12,13.08,13.31,4.68,7.75,3.51,14.66-2.17,21.44-1.97,2.35-2.99,3.8-6.33,3.16-1.75-.34-1.77-3.68-1.89-5.34-.18-2.67.18-5.4.01-8.07-.29-4.6-3.2-11.31-5.5-15.45-7.08-12.75-22.07-18.27-36.22-16.56-4.25.51-10.49,4.47-13.08,7.87-3.63,4.77-.28,6.91-.39,11.28-.18,7.31-3.02,14.85-8.06,20.15-5.72,6.03-11.01,7.62-17.94,2.19-3.61-2.83-4.96-5.47-5-10.22-.03-2.74,1.1-9.13,1.69-12.01s3.35-8.82,5.78-10.33c1.44-.9,3.77-1.15,5.18-2.07,1.6-1.04,4.25-4.18,6.05-5.63,10.09-8.14,21.53-12.35,34.64-12.9,6-.25,14.31,3.91,18.92,7.66,4.48,3.64,7.41,7.6,11.22,11.54ZM151.7,35.55c-.08-3.52-2.31-7.13-4.44-9.86-2.51-3.21-6.51-5.99-9.93-8.2-5.35-3.45-9.11-5.11-15.63-5.32-13.06-.42-33.82,5.7-40.67,17.78-2.06,3.63-1.81,8.74-3.86,12.45,7.03-.78,9.16-8.46,12.9-13.08,10.41-12.84,31.82-17.86,46.27-9.23,5.49,3.28,10.77,9.46,14.36,14.66.3.44-.12,1.06.99.81ZM77.98,29.92c-1.4-1.13-4.99,5.39-5.44,6.44-1.41,3.3-2.66,13.23.64,15.47,3.25,2.21,9.83,2.02,12.65-.97,2.65-2.81,7.13-13.34,4.43-16.91-3.97,3.67-6.31,13.04-11.49,15.04-3,1.16-2.94-1.95-3.4-3.38-.21-.64-.78-1.19-.93-1.89-.67-3.07,2.43-10.63,3.54-13.81ZM94.89,43.21c.84-3.37,1.39-6.91-1.2-9.67.18,6.08-1.94,11.73-4.37,17.19-.99,2.22-2.92,3.41-1.27,5.77l1.97-1.49-.76-2.13,1.8.81c2.29-2.38-.48-2.64-.59-4.84l1.81,1.6c1.49-1.63.96-2.61-.6-3.82,1.1-1.44,1.21.9,2,1l.84-3.36-1.24-1.47,1.6.4ZM162.18,48.46c2.98-.71-.72-6.22-2.01-7.66,1.83,3.65,1.26,7.04.41,10.85l1.98.42c.53-1.44.71-2.41-.39-3.61ZM156.13,57.31c.02-1.22,1.67-1.8,1.94-2.7.41-1.38.07-8.02-.53-9.37-.28-.63-1.96-1.92-2.6-2.43l.4,10.27.8,4.23ZM162.58,52.48l-2.36.45c-.01,1.65-1.14,3.54-1.18,5.1-.07,2.71,3.53.83.72-1.53l1.96-.06c1.28-2.15-.34-1.6-.74-3.16l1.61-.81ZM83.22,56.91c-.17,1.09.6,1.83,1.47,2.35,2.07-.39,3.8-1.89,1.56-3.46l-3.03,1.11ZM79.16,57.33l-2.39-.42.05,2.36,2.36.46-.02-2.4ZM82.37,57.36l-2.37-.05.46,2.36,2.36.05-.45-2.37Z"/>
      <path d="M84.83,110.89l1.88,4.38c2.8.94,4.31-3.6,6.19-1.78,1.68,1.63,2.75,7.37,2.38,9.66-.25,1.54-.93,3.58-1.29,5.56-.94,5.2-3.05,3.05-6.74,2.32.47,6.91-6.58,3.62-10.04,1.38-4.99-3.23-6.78-7.39-10.71-11.45-1.37-1.42-5.17-3.65-5.03-5.4.24-2.96,7.25-2.67,4.23-6.69-1.74-2.32-3.19-2.25-5.46-2.99-2.35-.77-3.05-2.63-.2-2.63,5.47,0,5.97,2.96,9.09,4.22,1.32.53,3.55.44,5.33,1.11,1.72.65,4.08,2.85,5.43,3.06,1.01.16,4.71-.94,4.93-.74ZM92.38,120.25c-.32-.28-1.69-.4-2.19-.84l-.74.3c-1.08,1.29-1.81,2.71-.4,4.09,2.77,2.71,5.13-1.99,3.34-3.55ZM81.87,121.11c-2.19-2.22-4.75.28-3.52,2.82,2.43,1.54,6.31.02,3.52-2.82Z"/>
      <path d="M25.21,102.43c1.04-2.24,7.69-5.55,7.99-7.54.15-1-1.8-7.48-1.96-9.57-.41-5.41.03-11.17,1.64-16.32,1.56-.24,2.45,1.03,3.93,1.48,2.48.77,6.01.72,8.12-.91,1.06-.83,1.61-5.08,2.96-1.71,2.49,6.19,3.4,17.72,2.26,24.26-.76,4.37-5.37,6.29-9.43,6.27-1.66,0-3.29-1.08-5.14-.72-3.64.71-6.39,5-10.37,4.75ZM35.97,77.52c-5.33,1.13.25,8.61,2.89,3.69.92-1.71-.68-4.15-2.89-3.69ZM47.7,77.93c-5.87-.96-5.51,4.89-.12,4,1.42-1.37.92-2.47.12-4Z"/>
      <path d="M206.81,66.66c1.49,1.04-2.49,9.64-2.33,11.6-.89-.22-.55-.58-.54-1.11.02-1.39,1.1-5.27.9-5.87-.91-2.85-7.67-.65-9.71-.16-8.06,1.94-15.87,5.07-24.08,6.33.13-.76.85-.66,1.36-.85,4.82-1.8,10.48-3.06,15.46-4.68,4.45-1.44,8.9-3.5,13.38-4.75,1.21-.34,4.61-1.18,5.56-.51Z"/>
      <path d="M181.99,90.42c.34-.19.92-.16,1.27-.02.86.36,3.76,6.01,3.43,7.31-.93,2.16-3.1.45-4.46.76-1.69.39-2.29,3.27-4.45,2.69-1-.27-2.09-2.08-1.74-3.17.71-2.23,4.82-5.35,5.95-7.57Z"/>
      <path d="M164.59,80.28l-1.86,3.21c.85,5.36-2.85,9.8-4.66,14.24-1.85,4.54-3.28,9.31-5.04,13.89-.2.51-.24,1.18-.92,1.3-.16-4.22,2.61-8.14,3.81-12.1,1.15-3.8,1.63-5.38,3.05-9.04,1.25-3.23,1.86-8.2,4.25-10.65.42-.43.58-1.02,1.37-.84Z"/>
      <path d="M118.6,128.15c-.09.14-2.62,1.2-2.98,1.25-2.31.35-6.84-.67-6.18-3.76.44-1.26,8.07-1.81,9.03.14.24.5.39,1.94.13,2.36Z"/>
      <path d="M56.92,50.52c2.97-.83,5.11,7.22,1.11,7.99-4.73.91-4.22-6.27-1.11-7.99Z"/>
      <path d="M179.38,53.81c1.5,1.31,1.62,6.46-.29,7.32-2.57,1.16-4.01-2.18-3.54-4.33.29-1.32,2.3-4.33,3.83-2.98Z"/>
      <path d="M30.44,96.39c.87.92-2.2,1.2-2.6,1.22-1.29.06-2.48-.29-3.57-.27-3.93.09-8.08.76-11.95-.16-.57-.59.04-.73.6-.8,1.48-.19,3.28.09,4.84,0,1.98-.12,11.69-1.05,12.69,0Z"/>
      <path d="M51.8,109.28v2.01c-1.41.25-9.65,1.09-9.66-.6.42-.5.73-.87,1.41-1,.99-.19,7.96-.71,8.25-.41Z"/>
      <path d="M199.24,112.51c-1.34,1.98-4.3,2.23-6.55,1.91-.84-.12-3.44-.97-2.07-1.95,2.97-.77,5.69-.98,8.62.04Z"/>
      <path d="M114.51,130.31c.68-.21,2.76-.23,3.35.12l.63,2.22c-.84,1.6-5.56,1.22-5.4-.53.05-.54.86-1.63,1.43-1.8Z"/>
      <path d="M183.8,82.74c2.5-.68,1.79,5.87-.87,5.62-2.5-.24-.86-5.14.87-5.62Z"/>
      <path d="M175.54,103.58l5.17-1.15c.59.56-2.53,3-3.12,3.15-2.43.6-5.68-4.44-3.92-5.16l1.88,3.16Z"/>
      <path d="M168.66,62.99c1.72-1.21,4.33,3.36,1.69,4.33-.47.15-.89.03-1.34-.11-1.92-.62-.87-3.86-.35-4.22Z"/>
      <path d="M42.03,62.85c-.55.55-1.96.51-2.72.5-.1-6.87,5.14-2.9,2.72-.5Z"/>
      <path d="M183.53,101.62c-.36-.91.91-1.08,1.52-1.12,1.73-.09,3.13,1.12,3.31-1.7l1.59,1.06c-.52,3.54-4.01,1.63-6.42,1.76Z"/>
      <path d="M167.01,130.23c-.16.78-.81.71-1.41.8-2.08.33-4.2.55-6.25,0-1.6-1.68,7.03-1.32,7.65-.8Z"/>
      <path d="M151.7,94.78l-2.01,1.81,1.22.79-.22,1.02-3.42-1.82c.55-1.92,2.75-1.92,4.43-1.8Z"/>
      <path d="M187.37,87.53c.82-.2,1.68,1.42,1.41,2.19-.03.81-1.47,1.91-2.17,1.77-2.16-.42.29-3.85.76-3.96Z"/>
      <path d="M210.92,108.07c-1.82.66-4.15,1.72-5.63-.2.03-1.12,5.17-1.67,5.63.2Z"/>
      <path d="M178.1,87.53c1.69-.36,1.2,4.63-.81,4.02-1.36-1.36-.54-3.11.81-4.02Z"/>
      <path d="M62.67,37.17c-.22-.87.29-4.68,1.81-4.03,1.39.6.38,4.99-1.81,4.03Z"/>
      <path d="M97.72,124.59c.93-.47,6.46-.82,6.44.2-1.16,1.42-3.44.96-5.02.6-.57-.13-1.25.02-1.41-.8Z"/>
      <path d="M162.17,111.29c-2.07-1.99-3.05-5.66-3.21-8.46.68.11.72.79.92,1.3.89,2.29,1.68,4.78,2.3,7.16Z"/>
      <path d="M194.41,58.12c-.41-1.51-.42-3.53,1.4-4.03,1.19.25.9,4.75-1.4,4.03Z"/>
      <path d="M48.57,105.25c.1.7-.92.38-1.4.4-2.5.1-5.05.08-7.46-.6-.04-1.19,7.96.05,8.86.21Z"/>
      <path d="M122.64,128.27l-.18,1.6c-5.12,1.78-3.6-3.22.18-1.6Z"/>
      <path d="M163.38,23.47c.59,1.31.82,3.91-1.36,3.18-1.47-.49-.52-3.75,1.36-3.18Z"/>
      <path d="M50.18,101.23c.79-.2,4.8-1.06,4.43.59-.25,1.1-4.15,1.24-4.43-.59Z"/>
      <path d="M103.36,129.02c.07.59-1.06.72-1.44.76-1.26.13-2.54,0-3.79.04v-1.21c1.76.02,3.55-.2,5.24.41Z"/>
      <path d="M108.48,129.09c2.76-.8,2.84,2.27.31,2.18-1.56-.06-1.86-1.72-.31-2.18Z"/>
      <path d="M80.8,105.65c.03.6-1.44.71-1.86.76-1.47.16-4.86.54-5.79-.76h7.65Z"/>
      <path d="M32.05,101.62c.92-1.5,3.53-.62,4.99-.76l3.07.76h-8.06Z"/>
      <path d="M132.77,129.83c.38,1.23-1.44.87-2.21.8-.89-.09-2.63-.27-3.03-1.2,1.78-.75,3.43.28,5.24.4Z"/>
      <path d="M164.19,89.94c.36-1.66.59-3.54,1.08-5.16.2-.66.66-2.21,1.33-2.49-.66,2.41-.73,5.78-2.41,7.65Z"/>
      <path d="M162.58,115.73l-4.42,2.22-2.43.18c.13-.76.85-.66,1.36-.85,1.69-.63,3.71-1.22,5.48-1.56Z"/>
      <path d="M56.22,115.73l-.24,1.23c-1.07.53-1.91.31-2.98-.04.16-1.85,1.98-1.5,3.22-1.2Z"/>
      <path d="M200.45,89.14c-.23,1.92-.57,4.68-2.01,6.04.15-1.66.67-3.5,1.15-5.1.2-.66-.32-1.14.85-.94Z"/>
      <path d="M23.19,100.42l-3.04.81-1.79-.62c0-1,4.07-.62,4.82-.2Z"/>
      <path d="M30.04,109.27c.28-1.15,4.04-1.02,4.02-.2-1.07,1.7-2.49.4-4.02.2Z"/>
      <path class="cls-2" d="M84.42,92.36h-1.21s.39,1.36.39,1.36l-.63.62c-1.03.33-4.5-2.08-3.99-3.19.49,1.3,3.79,1.85,4.2.55.17-.55-.5-3.07-.38-4.38.15-1.52,1.89-7.05,1.59-8.01l-1.59-.86c-.13-3.17,6.69-4.41,9.08-4.62,1.97-.18,10.35.12,11.72,1.17,2.8,2.14,1.46,14.52,1.34,17.97-.05,1.58,1.03,4.19-.37,5.64-.37.39-9.69,3.47-10.22,3.36-.41-.08-.75-.84-1.36-1.06-.98-.35-2.62-.22-3.81-.62-1.37-.45-2.82-1.86-3.98-2.48-.39-.21-1.03.13-1.2,0-1.39-1.1.4-4.03.43-5.45ZM102.64,77.01c-.37-.24-.36-1.52-1.98-1.89-1.15-.26-6.62-.57-7.98-.51-3.37.15-3.94,1.99-6.83,2.45-.53.08-1.29.16-.61.79,2.29.3,4.76,1.04,7.06,1.21,1.63.12,11.75.13,11.87-1.81-.49-1.01-1.23-.06-1.52-.24ZM102.15,80.68c-2.43-.4-5.15.75-7.45.72-1.73-.03-3.66-.93-5.27-1.1-.8-.09-.59.09-.58.78,4.18.66,9.93,2.94,13.3-.4ZM86.04,80.68l-1.21.6v9.06h.8c-.44-1.2.4-3.07.4-3.83v-5.84ZM103.76,92.96c-.04-2.15,0-4.3,0-6.45,0-.07-.4-1.18-.8-1-.72,3-.56,5.95.4,8.86,1.31-.42.4-1.08.4-1.41ZM98.12,98.81c-2.96.34-5.17.6-8.05-.4.31,2.25,2.27,1.25,3.42,1.29.79.02,1.45.46,2.38.32.3-.04,2.13-.75,2.25-1.2Z"/>
      <path class="cls-2" d="M114.11,60.81c-2.44,1.98-9.67,3.61-12.36,1.93-.88-.55-3.95-6.82-4.01-8.09-.24-5.13,7.67-10.33,12.58-9.34,4.25.86,7.63,7.46,6.55,11.6-.18.69-2.23,3.47-2.75,3.89ZM108.5,48.93c-2.83.39-6.24,3.13-6.38,6.17-.12,2.49,3.47,5.46,5.88,5.45,2.07-.01,5.71-4.27,5.86-6.26.21-2.86-2.42-5.75-5.36-5.35Z"/>
      <path class="cls-2" d="M138.27,44.57c4.17-.15,7.88,1.59,9.48,5.61.89,2.24.71,4.19-.2,6.4-1.49,3.62-11.6,6.22-14.61,3.57-.83-.73-3.31-4.44-3.34-5.44s.62-4.44.99-5.42c1.13-3.02,4.6-4.61,7.69-4.72ZM136.13,49.79c-2.85,2.87-2.42,8.19,2.12,8.7,2.9.32,7.77-2.53,6.3-5.91-.26-.6-2.98-3.37-3.57-3.68-1.69-.88-3.56-.41-4.85.89Z"/>
      <path class="cls-2" d="M77.17,82.28l-6.17-4.5c-1.84-1.09-4.43-1-5.51-3.14,1.32.54,2.79.83,4.11,1.32,2.77,1.04,4.56,2.07,6.54,4.34.44.51.68,1.38,1.03,1.98Z"/>
      <path class="cls-2" d="M81.6,84.3l.4,5.64c-2.59-.45-3.04-5.19-.4-5.64Z"/>
      <path class="cls-2" d="M77.17,93.57c.72.8-2.07,2.64-2.59,2.85-1.62.65-3.39.29-5.06.37l4.25-1.18c.72,0,3.02-2.46,3.4-2.03Z"/>
      <path class="cls-2" d="M82.41,80.28c.35.29-3.49,4.78-4.83,3.62-.25-.24,3.71-4.06,4.83-3.62Z"/>
      <path class="cls-2" d="M138.81,111.3c-1.62,1.69-3.11,2.8-5.38,1.6l-.26-.79,3.22-2.82c-1.06.03-5.36,1.9-5.19-.14.21-2.47,4.12-1.12,5.35-.23.89.64.67,2.4,2.25,2.39Z"/>
      <path class="cls-2" d="M133.17,116.93c1-2.89,3.85-1.79,5.63-.2-1.82,2.58-3.38,1.07-5.63.2Z"/>
      <path class="cls-2" d="M129.14,99.61c.22,1.02-.27.7-.76,1.04-.95.66-5.3,2.79-6.09,1.77-.18-.83.41-.93.93-1.28,1.02-.7,4.94-2.43,5.92-1.53Z"/>
      <path class="cls-2" d="M143.24,114.12c-1.8,1.55-3.42,2.78-5.23.59,1.12-2.82,3.19-1.25,5.23-.59Z"/>
      <path class="cls-2" d="M131.16,110.49c.13,1.06-.03.63-.59.81-2.22.71-3.14.05-5.05-1.01,1.95-1.91,3.55-.22,5.64.21Z"/>
      <path class="cls-2" d="M148.08,126.19c.59-1.91,3.28-2.12,4.83-3.22,1.05,1.34-4.46,3.55-4.83,3.22Z"/>
      <path class="cls-2" d="M139.61,126.6c-1.58-.72-3.28-.87-4.91-1.33-.41-.12-1.22-.1-1.12-.68.54-.36,7.42.77,6.04,2.01Z"/>
      <path class="cls-2" d="M151.7,35.55c-1.11.25-.69-.37-.99-.81-3.59-5.2-8.87-11.38-14.36-14.66-14.45-8.63-35.86-3.6-46.27,9.23-3.74,4.62-5.88,12.3-12.9,13.08,2.06-3.7,1.8-8.81,3.86-12.45,6.85-12.08,27.6-18.2,40.67-17.78,6.51.21,10.28,1.87,15.63,5.32,3.42,2.21,7.42,4.98,9.93,8.2,2.13,2.73,4.36,6.34,4.44,9.86ZM129.54,14.61c-3.53-.33-7.59-1.49-11.1-1.23-.69.05-1.33-.05-1.79.63,3.23.16,6.62.17,9.84.63.9.13,3.35,1.66,3.05-.03ZM114.23,13.8c-1.43.12-3.63.24-4.43,1.61,1.29.12,2.46-.08,3.63-.62.61-.28,1,.06.8-.99ZM134.78,16.63l-4.83-1.61c.79,1.48,2.9,1.64,4.3,2.35l.53-.74ZM107.79,15.82c-2.13.41-4.73,1.11-6.72,1.94-3.03,1.26-13.66,6.61-15.2,8.97-.92,1.41-1.95,4.32-2.25,6.01,1.36-1.04,1.88-2.81,3.01-4.04,1.59-1.73,7.71-5.54,10.01-6.91,3.64-2.16,7.76-3.55,11.15-5.97ZM144.85,25.48c.47-.46-2.8-3.7-3.22-3.22-.25,1.89,1.63,2.86,3.22,3.22Z"/>
      <path class="cls-2" d="M77.98,29.92c-1.11,3.17-4.2,10.73-3.54,13.81.15.69.72,1.25.93,1.89.46,1.43.4,4.54,3.4,3.38,5.17-2,7.51-11.38,11.49-15.04,2.69,3.58-1.78,14.1-4.43,16.91-2.83,2.99-9.41,3.18-12.65.97-3.3-2.24-2.05-12.17-.64-15.47.45-1.05,4.04-7.57,5.44-6.44ZM73.95,46.03c-1.29-.48-.89,2.34-.72,2.94.47,1.63,4.99,3.55,6.46,3.44s2.98-1.46,3.93-2.55c-1.42-.4-3.2,1.44-4.58.97-.48-.16-.51-.89-.76-1.06-.5-.33-4.02-.99-4.27-1.38l-.06-2.36Z"/>
      <path class="cls-2" d="M94.89,43.21l-1.6-.4,1.24,1.47-.84,3.36c-.79-.1-.9-2.45-2-1,1.56,1.21,2.09,2.19.6,3.82l-1.81-1.6c.11,2.2,2.88,2.46.59,4.84l-1.8-.81.76,2.13-1.97,1.49c-1.65-2.36.28-3.55,1.27-5.77,2.43-5.46,4.55-11.11,4.37-17.19,2.59,2.76,2.04,6.3,1.2,9.67Z"/>
      <path class="cls-2" d="M156.13,57.31l-.8-4.23-.4-10.27c.64.51,2.32,1.8,2.6,2.43.61,1.36.94,8,.53,9.37-.27.9-1.92,1.47-1.94,2.7Z"/>
      <path class="cls-2" d="M162.18,48.46c1.1,1.2.91,2.17.39,3.61l-1.98-.42c.84-3.8,1.42-7.2-.41-10.85,1.29,1.44,4.99,6.95,2.01,7.66Z"/>
      <path class="cls-2" d="M162.58,52.48l-1.61.81c.41,1.56,2.03,1.01.74,3.16l-1.96.06c2.81,2.35-.8,4.24-.72,1.53.04-1.57,1.17-3.45,1.18-5.1l2.36-.45Z"/>
      <path class="cls-2" d="M83.22,56.91l3.03-1.11c2.24,1.57.51,3.07-1.56,3.46-.87-.52-1.64-1.26-1.47-2.35Z"/>
      <polygon class="cls-2" points="82.37 57.36 82.81 59.73 80.45 59.67 79.99 57.31 82.37 57.36"/>
      <polygon class="cls-2" points="79.16 57.33 79.19 59.73 76.83 59.27 76.77 56.91 79.16 57.33"/>
      <path class="cls-2" d="M81.87,121.11c2.79,2.83-1.09,4.36-3.52,2.82-1.24-2.54,1.33-5.04,3.52-2.82ZM79.22,121.4c-.84.6-.09,2.78,1.36,2.38,1.56-.43.17-3.47-1.36-2.38Z"/>
      <path class="cls-2" d="M92.38,120.25c1.79,1.56-.57,6.25-3.34,3.55-1.41-1.38-.68-2.8.4-4.09l.74-.3c.5.44,1.87.56,2.19.84ZM90.35,120.62c-1.92.54-1.06,3.41.67,3.1,1.41-.26,1.78-3.79-.67-3.1Z"/>
      <path class="cls-2" d="M35.97,77.52c2.21-.47,3.81,1.98,2.89,3.69-2.65,4.92-8.23-2.56-2.89-3.69ZM35.92,78.69c-1,.34-1.04,2.7.37,2.82,2.41.2,1.91-3.58-.37-2.82Z"/>
      <path class="cls-2" d="M47.7,77.93c.8,1.53,1.3,2.63-.12,4-5.38.89-5.75-4.97.12-4ZM44.96,81.07c1.54,1.06,2.95-1.95,1.39-2.4s-1.98,2-1.39,2.4Z"/>
      <path d="M102.64,77.01c.29.19,1.03-.76,1.52.24-.12,1.93-10.24,1.93-11.87,1.81-2.3-.17-4.76-.91-7.06-1.21-.67-.63.08-.7.61-.79,2.9-.46,3.46-2.3,6.83-2.45,1.36-.06,6.82.25,7.98.51,1.62.37,1.61,1.64,1.98,1.89Z"/>
      <path d="M102.15,80.68c-3.37,3.33-9.12,1.06-13.3.4-.01-.69-.22-.87.58-.78,1.61.18,3.54,1.08,5.27,1.1,2.3.03,5.02-1.12,7.45-.72Z"/>
      <path d="M86.04,80.68v5.84c0,.76-.84,2.63-.4,3.83h-.8s0-9.06,0-9.06l1.21-.6Z"/>
      <path d="M103.76,92.96c0,.32.91.99-.4,1.41-.96-2.91-1.12-5.86-.4-8.86.41-.17.8.94.8,1,0,2.15-.04,4.3,0,6.45Z"/>
      <path d="M98.12,98.81c-.12.45-1.95,1.16-2.25,1.2-.93.14-1.59-.3-2.38-.32-1.15-.03-3.11.97-3.42-1.29,2.88,1,5.1.75,8.05.4Z"/>
      <path d="M108.5,48.93c2.93-.4,5.57,2.49,5.36,5.35-.15,2-3.79,6.25-5.86,6.26-2.41.01-5.99-2.96-5.88-5.45.14-3.04,3.55-5.79,6.38-6.17Z"/>
      <path d="M136.13,49.79c1.29-1.29,3.16-1.77,4.85-.89.59.31,3.31,3.08,3.57,3.68,1.47,3.38-3.4,6.23-6.3,5.91-4.55-.5-4.98-5.83-2.12-8.7Z"/>
      <path d="M107.79,15.82c-3.39,2.42-7.51,3.81-11.15,5.97-2.31,1.37-8.42,5.18-10.01,6.91-1.13,1.23-1.65,3-3.01,4.04.29-1.69,1.33-4.6,2.25-6.01,1.54-2.36,12.17-7.71,15.2-8.97,1.99-.83,4.59-1.52,6.72-1.94Z"/>
      <path d="M129.54,14.61c.3,1.69-2.15.16-3.05.03-3.22-.47-6.61-.48-9.84-.63.46-.67,1.09-.57,1.79-.63,3.51-.26,7.57.91,11.1,1.23Z"/>
      <path d="M144.85,25.48c-1.59-.36-3.47-1.33-3.22-3.22.41-.48,3.68,2.76,3.22,3.22Z"/>
      <path d="M134.78,16.63l-.53.74c-1.4-.71-3.51-.87-4.3-2.35l4.83,1.61Z"/>
      <path d="M114.23,13.8c.19,1.05-.2.71-.8.99-1.17.54-2.34.74-3.63.62.8-1.36,3-1.49,4.43-1.61Z"/>
      <path d="M73.95,46.03l.06,2.36c.25.39,3.77,1.05,4.27,1.38.26.17.28.89.76,1.06,1.38.47,3.16-1.37,4.58-.97-.95,1.09-2.42,2.43-3.93,2.55s-5.99-1.81-6.46-3.44c-.17-.6-.57-3.41.72-2.94Z"/>
      <path d="M79.22,121.4c1.53-1.09,2.93,1.94,1.36,2.38-1.45.4-2.2-1.78-1.36-2.38Z"/>
      <path d="M90.35,120.62c2.45-.7,2.08,2.84.67,3.1-1.73.31-2.59-2.55-.67-3.1Z"/>
      <path d="M35.92,78.69c2.28-.77,2.78,3.02.37,2.82-1.41-.12-1.37-2.48-.37-2.82Z"/>
      <path d="M44.96,81.07c-.59-.4-.11-2.83,1.39-2.4s.15,3.46-1.39,2.4Z"/>
    </g>
    <path d="M74.33,22.4c-.63-2.73,0-5.72,1.7-7.95l-.64-.13c-1.31,2.58-1.85,5.51-1.56,8.39l.69-.25c-1.54-1.7-3.97-2.48-6.22-2.13-.66.1-1.3.29-1.91.58l.39.35c1.98-1.19,4.58-1.1,6.52.12.15.09.38.05.52-.05.11-.08.2-.26.04-.35-2.27-1.43-5.27-1.4-7.56-.02-.12.07-.18.23-.07.33.12.11.33.08.46.02,2.37-1.13,5.39-.48,7.15,1.46.19.21.73.06.69-.25-.28-2.79.26-5.63,1.52-8.12.18-.35-.5-.32-.64-.13-1.8,2.35-2.49,5.45-1.83,8.33.07.31.8.13.72-.19h0Z"/>
    <g>
      <path class="cls-1" d="M4.69,39.07c-.06-.22-.13-.44-.21-.66-.08-.22-.16-.43-.25-.64.03.19.06.38.11.58.04.2.09.4.13.6.04.2.08.4.1.59s.04.38.03.56c0,.18-.03.35-.08.5-.05.16-.13.3-.24.43s-.26.24-.44.33c-.18.09-.41.16-.69.21-.18.03-.38.04-.58.02-.2-.01-.41-.05-.61-.1s-.39-.12-.58-.2c-.19-.08-.35-.18-.5-.3-.15-.11-.27-.24-.37-.38-.1-.14-.16-.28-.18-.44-.02-.16,0-.32.06-.49.06-.17.18-.34.35-.52.17-.18.41-.36.7-.54.29-.18.66-.37,1.1-.55-.13.02-.23.04-.32.06-.09.01-.17.03-.24.04-.07.01-.13.03-.19.04s-.12.03-.18.06c-.06.03-.14.06-.22.1-.08.04-.18.09-.29.15-.32.18-.57.37-.74.58-.17.21-.28.42-.33.64s-.04.43.01.64c.06.21.16.41.3.6.14.19.32.36.53.51.21.15.44.28.7.38.25.1.52.16.8.19s.57.02.85-.04c.29-.07.54-.16.75-.27.2-.11.37-.24.5-.39.13-.15.22-.31.29-.48.06-.18.1-.36.11-.56,0-.2,0-.4-.04-.61-.03-.21-.08-.43-.14-.65Z"/>
      <path class="cls-1" d="M2.37,39.91c.02.07.07.12.17.15.05.01.1,0,.14-.01s.08-.05.11-.09.06-.08.07-.13.03-.09.02-.13c0-.04-.02-.08-.04-.11-.02-.03-.06-.04-.12-.04-.06,0-.12,0-.18.03s-.1.06-.13.11c-.06.08-.08.15-.06.23Z"/>
      <path class="cls-1" d="M6.16,40.79c.14,0,.27-.02.37-.07.11-.05.2-.11.26-.19s.1-.15.12-.24c.02-.09.02-.17,0-.24-.02-.07-.06-.14-.12-.19-.06-.05-.13-.07-.22-.07-.1,0-.17.02-.22.06-.05.04-.08.09-.1.15-.01.06-.01.12,0,.18s.04.11.08.15c-.04.03-.08.05-.12.06-.04,0-.07,0-.11,0-.1,0-.18-.03-.24-.1-.07-.07-.12-.17-.15-.29s-.05-.26-.05-.42c0-.16,0-.32.02-.49.02-.17.04-.34.07-.52.03-.17.06-.33.09-.48.03-.15.06-.28.08-.4s.04-.2.05-.26c-.22.42-.38.79-.49,1.12-.11.33-.18.62-.2.87-.03.25-.02.46.02.64.04.17.1.32.19.42.08.11.18.19.29.23.1.04.2.05.3.05h0s.01,0,.02,0c0,0,.01,0,.02,0h0Z"/>
      <path class="cls-1" d="M8.48,40.75c.15-.14.26-.29.35-.44.08-.15.14-.3.16-.45.02-.15.01-.29-.02-.41-.04-.12-.1-.23-.19-.31-.09-.08-.21-.14-.35-.16-.14-.02-.31,0-.5.04s-.41.15-.64.31c.08-.02.18-.04.29-.06.11-.02.22-.02.33-.02s.22.02.32.04c.1.03.18.07.25.13.06.06.1.15.11.25s-.01.23-.08.39c-.09.15-.19.28-.29.39-.11.11-.22.2-.34.28-.12.08-.25.15-.38.21-.13.06-.27.11-.41.16-.14.05-.29.1-.43.15-.15.05-.3.11-.45.17.36.01.69,0,.98-.06.29-.06.54-.14.76-.24.22-.1.4-.23.55-.37Z"/>
      <path class="cls-1" d="M10.33,41.2c.09-.13.17-.26.22-.4h.15v-.02c.05,0,.1,0,.16-.03.08-.03.15-.09.22-.16.07-.07.12-.16.17-.27.05-.11.07-.23.08-.37,0-.07,0-.13-.01-.17,0-.04-.02-.06-.04-.06-.01,0-.03.02-.05.06-.02.04-.03.11-.04.2-.03.09-.07.16-.12.22s-.1.1-.15.14c-.05.03-.1.06-.15.07-.05.01-.09.01-.12,0h-.03c0-.1,0-.18,0-.25s0-.13-.01-.18-.02-.1-.03-.15-.03-.1-.04-.15c-.08-.17-.17-.28-.28-.33-.1-.06-.2-.08-.3-.06-.1.02-.2.07-.29.15-.09.08-.17.17-.23.28-.06.11-.1.23-.12.35-.02.12-.01.24.03.35.04.11.11.2.22.27.11.07.26.12.46.13-.04.11-.1.23-.19.35-.09.12-.2.22-.35.32-.14.09-.32.17-.52.23-.2.06-.43.09-.7.09h-.53c.23.09.45.15.66.17.21.02.42.02.61,0,.19-.03.37-.07.54-.15.17-.07.31-.16.45-.26.13-.1.25-.22.34-.34ZM9.98,40.4c-.06,0-.12-.02-.18-.03-.05-.02-.1-.04-.13-.07-.04-.03-.06-.06-.07-.11s0-.1.03-.16c.03-.06.08-.14.16-.22.06-.08.11-.11.16-.1s.1.05.14.11c.04.06.07.15.08.25.02.11.01.22,0,.33-.06,0-.13,0-.19,0Z"/>
      <path class="cls-1" d="M11.35,41.75c-.12-.03-.25-.04-.39-.04-.14,0-.28.03-.42.07-.14.05-.27.12-.4.21-.12.09-.22.22-.3.37.13-.06.26-.12.39-.17s.26-.1.39-.13c.13-.03.27-.05.4-.04.14,0,.28.05.42.12-.02.04-.06.08-.11.14s-.11.11-.18.16-.15.11-.22.17c-.08.06-.15.11-.22.16-.07.05-.13.1-.18.13-.05.04-.09.07-.11.09.08-.02.14-.03.19-.05.05-.01.1-.02.14-.03.04,0,.08-.02.11-.03.03-.01.07-.03.11-.05s.09-.04.15-.07c.06-.03.13-.07.21-.12.18-.1.3-.2.37-.29.07-.09.1-.18.09-.26-.01-.08-.06-.15-.13-.21-.08-.06-.18-.1-.29-.13Z"/>
      <path class="cls-1" d="M17.07,40.77s.04,0,.06.01h0s0,0,0,0c.01,0,.02,0,.04,0v-.02c.06,0,.11,0,.17-.03.08-.03.15-.09.22-.16.07-.07.12-.16.17-.27.05-.11.07-.23.08-.37,0-.07,0-.13-.01-.17,0-.04-.02-.06-.04-.06-.01,0-.03.02-.05.06-.02.04-.03.11-.04.2-.03.09-.07.16-.12.22s-.1.1-.15.14c-.05.03-.1.06-.15.07-.03,0-.05,0-.08,0h0c-.06,0-.1-.03-.14-.09-.04-.06-.07-.12-.09-.19-.02-.07-.04-.15-.05-.22,0-.07-.01-.13-.01-.17s0-.06,0-.07c0-.01,0-.02-.02-.03,0,0-.02,0-.05-.01s-.05-.02-.09-.04c-.02.02-.03.03-.05.04-.01,0-.02,0-.03.01,0,0-.02.01-.03.03-.01.01-.02.04-.04.07v.15c-.03.32-.06.63-.1.93s-.1.58-.18.85c-.08.26-.18.5-.31.71s-.29.39-.49.52c-.2.14-.44.23-.72.28-.28.05-.62.04-1.01-.02-.21-.03-.4-.09-.57-.17-.17-.08-.32-.19-.44-.32-.12-.13-.21-.27-.27-.43-.06-.16-.09-.33-.08-.5,0-.17.06-.35.14-.53.09-.18.22-.35.39-.52.18-.17.4-.33.67-.48.27-.15.6-.28.97-.4l.76-.23c-.27.02-.53.05-.78.08-.25.03-.5.09-.74.16-.24.07-.46.17-.68.29-.22.12-.42.27-.61.46-.23.25-.38.5-.46.74-.08.25-.1.49-.06.72.04.23.13.44.27.64s.31.38.52.52c.21.15.44.27.69.36.26.09.52.14.79.14.27,0,.54-.03.82-.12.27-.09.53-.23.76-.43.15-.13.29-.3.41-.49s.23-.4.32-.62c.09-.22.16-.45.22-.69.06-.24.09-.47.11-.7.01.03.03.05.05.08.02.02.04.04.07.05Z"/>
      <path class="cls-1" d="M14.58,41.12c-.05.02-.1.06-.13.11-.06.08-.08.15-.06.23s.07.12.17.15c.05.01.1,0,.14-.01s.08-.05.11-.09c.03-.04.06-.08.07-.13.02-.05.03-.09.02-.13,0-.04-.02-.08-.04-.11-.02-.03-.06-.04-.12-.04-.06,0-.12,0-.18.03Z"/>
      <path class="cls-1" d="M17.52,42.17c-.08.02-.17.05-.26.07-.09.02-.19.05-.29.07.02.06.04.11.06.15.02.04.04.06.07.08.03.02.06.03.1.03s.09,0,.15-.02c.07-.01.14-.04.22-.07.08-.03.16-.07.23-.11.07-.04.13-.1.18-.15.05-.06.07-.11.08-.17-.1.02-.19.04-.28.06-.08.02-.17.04-.25.07Z"/>
      <path class="cls-1" d="M19.28,38.41c.01-.25,0-.51-.03-.76s-.09-.5-.16-.74c-.04.27-.07.52-.11.76s-.07.48-.11.7-.09.44-.14.66-.12.42-.21.62-.18.4-.3.6-.26.4-.42.6c.24-.12.45-.26.63-.44.18-.17.33-.37.45-.58s.21-.44.28-.68.11-.49.12-.74Z"/>
      <path class="cls-1" d="M21.3,38.35c.02.06.07.11.15.14.08.03.17.06.26.07.1.01.2.02.3.02s.18,0,.24-.02c.07-.01.15-.04.23-.07.09-.03.17-.08.25-.12.08-.05.14-.1.2-.16.05-.06.08-.12.09-.18-.31.04-.6.08-.89.14s-.56.12-.83.19Z"/>
      <path class="cls-1" d="M22.48,39.71s-.03.02-.05.06c-.02.04-.03.11-.04.2-.03.09-.07.16-.12.22s-.1.1-.15.14c-.05.03-.1.06-.15.07-.05.01-.09.01-.12,0h-.03c0-.1,0-.18,0-.25s0-.13-.01-.18-.02-.1-.03-.15-.03-.1-.04-.15c-.08-.17-.17-.28-.28-.33-.1-.06-.2-.08-.3-.06-.1.02-.2.07-.29.15-.09.08-.17.17-.23.28-.06.11-.1.23-.12.35-.02.12-.01.24.03.35.04.11.11.2.22.27.11.07.26.12.46.13-.04.11-.1.23-.19.35-.09.12-.2.22-.35.32-.14.09-.32.17-.52.23-.2.06-.43.09-.7.09h-.53c.23.09.45.15.66.17.21.02.42.02.61,0,.19-.03.37-.07.54-.15.17-.07.31-.16.45-.26.13-.1.25-.22.34-.34s.17-.26.22-.4h.15v-.02c.05,0,.1,0,.16-.03.08-.03.15-.09.22-.16.07-.07.12-.16.17-.27.05-.11.07-.23.08-.37,0-.07,0-.13-.01-.17,0-.04-.02-.06-.04-.06ZM21.37,40.4c-.06,0-.13,0-.19,0-.06,0-.12-.02-.18-.03-.05-.02-.1-.04-.13-.07-.04-.03-.06-.06-.07-.11s0-.1.03-.16c.03-.06.08-.14.16-.22.06-.08.11-.11.16-.1s.1.05.14.11c.04.06.07.15.08.25.02.11.01.22,0,.33Z"/>
      <path class="cls-1" d="M25.14,37.97c.1.01.2.02.3.02s.18,0,.24-.02c.07-.01.15-.04.23-.07.09-.03.17-.08.25-.12.08-.05.14-.1.2-.16.05-.06.08-.12.09-.18-.31.04-.6.08-.89.14-.29.05-.56.12-.83.19.02.06.07.11.15.14.08.03.17.06.26.07Z"/>
      <path class="cls-1" d="M27.05,39.71s-.03.02-.05.06c-.02.04-.03.11-.04.2-.03.09-.07.16-.12.22s-.1.1-.15.14c-.05.03-.1.06-.15.07-.05.01-.09.01-.12,0h0s-.1,0-.15,0c-.06,0-.12-.02-.18-.03-.06-.01-.11-.03-.15-.05s-.08-.04-.09-.06c.13-.1.22-.2.29-.31.07-.1.12-.21.15-.3.03-.1.03-.19.02-.28s-.03-.17-.07-.25c-.04-.07-.08-.14-.14-.19-.06-.05-.12-.09-.18-.11-.08-.02-.15-.02-.23-.01-.08.01-.16.04-.23.09-.07.05-.13.11-.19.2-.05.09-.09.2-.11.33-.03.19-.04.34,0,.47.03.12.08.22.16.29-.02.02-.05.04-.11.07-.05.03-.11.05-.17.08-.06.02-.12.04-.19.06-.05.01-.08.01-.11.02-.11,0-.2-.04-.26-.11-.07-.07-.12-.17-.15-.29s-.05-.26-.05-.42c0-.16,0-.32.02-.49.02-.17.04-.34.07-.52.03-.17.06-.33.09-.48.03-.15.06-.28.08-.4s.04-.2.05-.26c-.22.42-.38.79-.49,1.12-.11.33-.18.62-.2.87-.03.25-.02.46.02.64.04.17.1.32.19.42.08.11.18.19.29.23.09.04.19.05.29.05h0s.01,0,.02,0c.01,0,.02,0,.03,0h0s.1-.02.16-.04c.08-.02.16-.05.24-.09s.16-.07.23-.1c.07-.03.12-.06.16-.08.04.04.09.08.14.11.06.04.12.07.2.1.08.03.16.05.26.07.09.02.2.03.31.03h0c.06-.01.12-.02.18-.05.08-.03.15-.09.22-.16.07-.07.12-.16.17-.27.05-.11.07-.23.08-.37,0-.07,0-.13-.01-.17,0-.04-.02-.06-.04-.06ZM25.54,40.04s-.08-.1-.1-.15c-.03-.05-.04-.11-.05-.17,0-.06,0-.12.03-.19.02-.07.06-.13.1-.19.04-.05.09-.1.14-.12.05-.03.11-.03.17,0,.05.02.08.06.11.11s.04.11.02.18c-.01.07-.05.15-.12.24s-.16.19-.3.29Z"/>
      <path class="cls-1" d="M26.83,41.6c-.06,0-.12,0-.18.03-.05.02-.1.06-.13.11-.06.08-.08.15-.06.23s.07.12.17.15c.05.01.1,0,.14-.01.04-.02.08-.05.11-.09.03-.04.06-.08.07-.13.02-.05.03-.09.02-.13,0-.04-.02-.08-.04-.11-.02-.03-.06-.04-.12-.04Z"/>
      <path class="cls-1" d="M32.07,40.35c-.1-.04-.21-.08-.33-.1-.12-.02-.25-.03-.38-.04-.13,0-.25,0-.37,0-.12,0-.22.01-.31.02-.09,0-.15.01-.19.01-.08-.01-.14-.05-.16-.12-.02-.06,0-.14.04-.24.05-.1.13-.2.24-.32.12-.12.27-.24.45-.36.19-.12.41-.23.67-.35.26-.11.55-.21.88-.29-.13-.1-.28-.16-.45-.17-.17,0-.34.02-.51.08s-.35.15-.52.27-.33.24-.47.38c-.14.14-.26.29-.36.44-.1.15-.17.29-.2.42-.03.13-.03.25.02.35.05.1.15.17.3.21.04,0,.11.02.2.02s.2,0,.32,0c.12,0,.24.01.37.02.13,0,.24.03.34.05.1.03.18.06.24.11.06.05.08.11.06.18s-.08.17-.19.27c-.11.11-.28.24-.52.39-.33.21-.65.36-.95.47s-.58.16-.83.17c-.25,0-.47-.03-.66-.11-.19-.08-.33-.21-.44-.37-.1-.16-.16-.36-.16-.59s.05-.5.16-.8c.11-.3.29-.62.54-.98.25-.35.57-.73.97-1.13-.46.27-.85.59-1.18.97-.33.38-.57.82-.72,1.31-.09.28-.13.53-.13.75s.05.41.13.57c.08.16.19.3.34.41.15.11.31.19.5.25.19.06.39.09.6.1.21,0,.43,0,.66-.04.22-.04.44-.09.66-.17.22-.08.42-.17.61-.29.19-.12.36-.25.52-.4.15-.15.27-.32.37-.5.08-.16.13-.3.13-.41,0-.11-.02-.21-.08-.28-.05-.08-.13-.14-.23-.18Z"/>
      <path class="cls-1" d="M33.69,39.84c.12-.21.21-.44.28-.68s.11-.49.12-.74c.01-.25,0-.51-.03-.76s-.09-.5-.16-.74c-.04.27-.07.52-.11.76s-.07.48-.11.7-.09.44-.14.66-.12.42-.21.62-.18.4-.3.6-.26.4-.42.6c.24-.12.45-.26.63-.44.18-.17.33-.37.45-.58Z"/>
      <path class="cls-1" d="M36.61,39.71s-.03.02-.05.06c-.02.04-.03.11-.04.2-.03.09-.07.16-.12.22s-.1.1-.15.14c-.05.03-.1.06-.15.07-.04,0-.06,0-.09,0-.12,0-.23-.02-.3-.05-.08-.04-.14-.1-.18-.17,0-.11,0-.21,0-.29,0-.08-.03-.16-.07-.24-.08-.08-.14-.1-.18-.07-.04.03-.08.1-.12.22-.03.19-.08.37-.15.55-.08.18-.17.35-.28.51-.11.16-.24.31-.38.45-.14.14-.29.27-.45.38s-.31.22-.47.3-.32.15-.47.2c.18,0,.36-.01.53-.06.18-.05.35-.11.51-.19.16-.08.32-.18.46-.29.15-.11.28-.23.4-.35.12-.12.23-.25.31-.38.09-.13.16-.25.21-.37.07.15.3.23.68.23v-.02s.08,0,.13-.03c.08-.03.15-.09.22-.16.07-.07.12-.16.17-.27.05-.11.07-.23.08-.37,0-.07,0-.13-.01-.17,0-.04-.02-.06-.04-.06Z"/>
      <path class="cls-1" d="M36.39,41.6c-.06,0-.12,0-.18.03-.05.02-.1.06-.13.11-.06.08-.08.15-.06.23s.07.12.17.15c.05.01.1,0,.14-.01.04-.02.08-.05.11-.09.03-.04.06-.08.07-.13.02-.05.03-.09.02-.13,0-.04-.02-.08-.04-.11-.02-.03-.06-.04-.12-.04Z"/>
      <path class="cls-1" d="M44.07,38.01c-.09.11-.21.24-.35.38-.14.14-.3.27-.48.4-.17.13-.36.25-.56.36-.2.11-.39.2-.59.26-.2.06-.39.1-.57.1-.19,0-.35-.04-.5-.13l-.08-.07c-.11-.06-.19-.08-.23-.07-.04,0-.07.04-.07.1,0,.06,0,.14.03.25.02.11.04.23.05.36.01.14.02.29.01.45s-.04.33-.1.5c-.06.17-.16.35-.28.53-.13.18-.31.35-.54.52-.13.09-.28.17-.45.21-.16.05-.33.07-.5.08-.17,0-.33-.01-.49-.05-.16-.04-.29-.1-.41-.17-.12-.08-.21-.18-.28-.29-.07-.12-.09-.25-.08-.4.01-.15.07-.32.18-.51.11-.19.27-.39.5-.61.13-.15.26-.27.39-.37.13-.09.26-.17.4-.24.14-.07.29-.13.44-.18.16-.06.33-.12.52-.2-.2.04-.38.08-.53.12-.15.04-.29.08-.41.11s-.22.07-.31.11-.16.07-.23.11c-.07.04-.13.07-.18.11-.05.04-.1.07-.15.11-.15.12-.29.25-.41.39s-.24.29-.33.44-.16.3-.2.46c-.04.15-.06.3-.04.45.02.15.08.28.17.42s.23.25.41.35c.22.13.43.21.65.25.22.04.43.05.64.02.21-.03.41-.09.6-.18.19-.09.36-.2.52-.34.16-.14.3-.3.43-.47.12-.18.23-.36.3-.56.08-.2.13-.41.15-.62s0-.43-.04-.65c.22.06.44.07.66.05.22-.03.43-.08.64-.17.21-.09.4-.2.58-.33s.35-.28.5-.43c.15-.16.27-.32.38-.49.1-.17.18-.33.23-.48Z"/>
      <path class="cls-1" d="M41.64,37.76c.12.03.25.04.39.04.14,0,.28-.03.42-.07.14-.05.27-.12.4-.21.12-.09.22-.22.3-.37-.13.06-.26.12-.39.17-.13.06-.26.1-.39.13s-.27.05-.4.04-.28-.05-.42-.12c.02-.04.06-.08.11-.14.05-.05.11-.11.18-.16.07-.06.15-.11.22-.17.08-.06.15-.11.22-.16.07-.05.13-.1.18-.13.05-.04.09-.07.11-.09-.08.02-.14.03-.19.05-.05.01-.1.02-.13.03-.04,0-.08.02-.11.03-.03.01-.07.03-.11.05-.04.02-.09.04-.15.07-.06.03-.13.07-.21.11-.18.1-.3.2-.37.29s-.1.18-.09.26c.01.08.06.15.13.21.08.06.18.1.29.13Z"/>
      <path class="cls-1" d="M46.36,39.71s-.03.02-.05.06c-.02.04-.03.11-.04.2-.03.09-.07.16-.12.22s-.1.1-.15.14c-.05.03-.1.06-.15.07-.04,0-.08,0-.1,0-.09,0-.16-.02-.21-.05-.05-.04-.08-.09-.1-.15-.01-.06-.02-.14,0-.22s.03-.17.05-.27.05-.19.08-.29.05-.2.07-.29.02-.18.02-.26c0-.08-.02-.15-.06-.2-.06-.04-.1-.06-.14-.05s-.08.03-.11.08-.06.13-.09.24-.06.25-.1.42c-.04.19-.09.39-.16.6-.07.21-.16.4-.26.58s-.23.34-.37.47c-.14.13-.31.22-.5.25.04-.06.08-.13.14-.21.06-.08.11-.17.17-.26s.11-.19.15-.29.08-.2.1-.31c.02-.1.03-.21.01-.31-.01-.1-.05-.2-.12-.29.02.09.02.19,0,.29-.02.1-.06.2-.11.31-.05.1-.11.21-.18.31-.07.1-.14.2-.21.3s-.13.19-.19.27c-.06.09-.1.17-.12.24-.03.07-.03.14-.01.19.02.06.06.1.14.13.17.02.33,0,.5-.06.16-.06.31-.15.45-.26.14-.11.27-.25.4-.4.12-.16.23-.32.32-.49,0,.04.01.08.04.13.02.04.06.09.1.12.04.04.09.07.15.09.04.02.09.03.14.03h0s0,0,0,0c.01,0,.02,0,.03,0h0c.06-.02.12-.02.18-.05.08-.03.15-.09.22-.16.07-.07.12-.16.17-.27.05-.11.07-.23.08-.37,0-.07,0-.13-.01-.17,0-.04-.02-.06-.04-.06Z"/>
      <path class="cls-1" d="M46.9,38.03c-.31.04-.6.08-.89.14s-.56.12-.83.19c.02.06.07.11.15.14.08.03.17.06.26.07.1.01.2.02.3.02s.18,0,.24-.02c.07-.01.15-.04.23-.07.09-.03.17-.08.25-.12.08-.05.14-.1.2-.16.05-.06.08-.12.09-.18Z"/>
      <path class="cls-1" d="M49.01,40.03c.08-.25.1-.51.06-.79-.1.23-.2.43-.29.6-.1.17-.2.32-.3.45-.1.13-.22.24-.33.34-.12.1-.25.19-.4.28s-.31.17-.49.26c-.18.08-.39.18-.61.28h.6c.27-.05.52-.14.76-.27s.45-.29.62-.48c.17-.19.3-.41.38-.66Z"/>
      <path class="cls-1" d="M51,39.45c-.04-.12-.1-.23-.19-.31-.09-.08-.21-.14-.35-.16-.14-.02-.31,0-.5.04s-.41.15-.64.31c.08-.02.18-.04.29-.06.11-.02.22-.02.33-.02s.22.02.32.04c.1.03.18.07.25.13.06.06.1.15.11.25s-.01.23-.08.39c-.09.15-.19.28-.29.39-.11.11-.22.2-.34.28-.12.08-.25.15-.38.21-.13.06-.27.11-.41.16-.14.05-.29.1-.43.15-.15.05-.3.11-.45.17.36.01.69,0,.98-.06.29-.06.54-.14.76-.24.22-.1.4-.23.55-.37.15-.14.26-.29.35-.44.08-.15.14-.3.16-.45.02-.15.01-.29-.02-.41Z"/>
      <path class="cls-1" d="M52.36,39.16c.07-.24.11-.49.12-.74.01-.25,0-.51-.03-.76s-.09-.5-.16-.74c-.04.27-.07.52-.11.76s-.07.48-.11.7-.09.44-.14.66-.12.42-.21.62-.18.4-.3.6-.26.4-.42.6c.24-.12.45-.26.63-.44.18-.17.33-.37.45-.58s.21-.44.28-.68Z"/>
      <path class="cls-1" d="M54.53,40.78h0s0,0,0,0c0,0,.02,0,.03,0h0c.06-.01.12-.02.18-.05.08-.03.15-.09.22-.16.07-.07.12-.16.17-.27.05-.11.07-.23.08-.37,0-.07,0-.13-.01-.17,0-.04-.02-.06-.04-.06-.01,0-.03.02-.05.06-.02.04-.03.11-.04.2-.03.09-.07.16-.12.22s-.1.1-.15.14c-.05.03-.1.06-.15.07-.04,0-.08,0-.11,0-.03,0-.06,0-.09-.02-.04-.02-.07-.04-.1-.07-.03-.03-.05-.06-.07-.1s-.03-.07-.03-.11c0-.05,0-.1.02-.16s.02-.12.03-.17.02-.11.03-.17,0-.1,0-.14c0-.04-.01-.07-.03-.1-.02-.03-.04-.04-.07-.04-.02,0-.04.02-.05.05-.02.03-.03.07-.05.13-.02.05-.04.11-.05.17s-.04.12-.07.17c-.07.16-.18.31-.31.46-.13.14-.29.27-.45.39-.17.11-.35.21-.54.29s-.38.13-.56.15c-.15.02-.22.04-.21.07,0,.03.09.06.23.09.12.03.24.03.37.02.13-.01.25-.04.38-.07s.25-.09.36-.14c.12-.06.23-.12.32-.19.1-.07.18-.14.25-.21.07-.07.13-.14.16-.21.02.04.05.08.08.11.04.04.08.07.13.09.05.03.1.05.16.07.04.01.09.02.13.02Z"/>
      <path class="cls-1" d="M54.92,42.17c-.08.02-.17.05-.26.07-.09.02-.19.05-.29.07.02.06.04.11.06.15.02.04.04.06.07.08.03.02.06.03.1.03s.09,0,.15-.02c.07-.01.14-.04.22-.07.08-.03.16-.07.23-.11.07-.04.13-.1.18-.15.05-.06.07-.11.08-.17-.1.02-.19.04-.28.06-.08.02-.17.04-.25.07Z"/>
      <path class="cls-1" d="M58.45,35.33c-.12.11-.24.19-.36.22-.12.04-.24.05-.37.03-.13-.02-.26-.04-.4-.07-.14-.03-.28-.06-.44-.08s-.32-.02-.5,0c-.23.02-.44.08-.62.18-.19.1-.36.22-.5.38s-.27.33-.38.52c-.1.19-.18.39-.24.6.08-.17.18-.33.31-.49.13-.16.28-.29.45-.4.17-.11.36-.2.57-.26.21-.06.42-.08.65-.06.13.01.26.03.4.04s.27.02.41.02c.14,0,.27-.02.41-.05.13-.03.26-.09.38-.17s.23-.2.34-.34c.1-.14.19-.33.27-.56-.13.23-.25.4-.37.51Z"/>
      <path class="cls-1" d="M56.49,36.91c-.04.27-.07.52-.11.76s-.07.48-.11.7-.09.44-.14.66-.12.42-.21.62-.18.4-.3.6-.26.4-.42.6c.24-.12.45-.26.63-.44.18-.17.33-.37.45-.58s.21-.44.28-.68.11-.49.12-.74c.01-.25,0-.51-.03-.76s-.09-.5-.16-.74Z"/>
    </g>
    <path d="M74.12,21.5c-.15-4.9-1.56-9.93-5.11-13.46-3.1-3.08-7.57-4.65-11.86-3.38-4.05,1.2-7,4.79-6.67,9.12.15,1.97,1.02,3.92,2.59,5.17,1.43,1.14,3.36,1.63,5.17,1.46s3.57-1,4.65-2.48c1.35-1.85,1.63-4.28,1.35-6.5-.53-4.24-3.28-8.13-7.07-10.08s-8.54-1.74-12.29.26-6.32,5.96-6.72,10.29c-.2,2.16.11,4.39.99,6.38.95,2.16,2.48,3.98,3.58,6.06,1.15,2.18,1.56,4.61.61,6.95s-2.92,3.94-5.35,4.37c-1.24.22-2.51.1-3.69-.31-.32-.11-.85.35-.41.5,3.92,1.38,8.41-.45,10.08-4.29.81-1.87.86-3.95.17-5.87-.72-2.03-2.05-3.75-3.17-5.57s-1.94-3.87-2.1-6.08.21-4.26,1.05-6.2c1.69-3.91,5.38-6.59,9.59-7.17s8.46,1.08,11.18,4.42c2.58,3.17,4.09,8.3,1.93,12.08-1.99,3.48-7.25,3.52-9.76.61-2.73-3.17-1.96-8.28,1.17-10.88,3.43-2.85,8.35-2.68,12.01-.38,3.96,2.49,6.19,6.82,6.99,11.33.22,1.22.33,2.45.37,3.69.01.39.75.29.74-.05h0Z"/>
  </g>
</svg>