<?xml version="1.0" encoding="UTF-8"?>
<svg id="Layer_2" data-name="Layer 2" xmlns="http://www.w3.org/2000/svg" viewBox="0 0 233.87 46.42">
  <defs>
    <style>
      .cls-1 {
        fill: #231f20;
      }
    </style>
  </defs>
  <g id="Layer_1-2" data-name="Layer 1">
    <g>
      <path class="cls-1" d="M24.96,17.65c.62.27,1.33.46,2.12.57.79.11,1.59.15,2.39.13.8-.02,1.45-.08,1.96-.18.55-.12,1.18-.31,1.89-.59.71-.27,1.38-.6,2.01-1,.62-.39,1.16-.82,1.6-1.29s.67-.95.69-1.44c-2.46.31-4.85.68-7.16,1.11-2.31.43-4.54.94-6.67,1.52.16.49.55.87,1.17,1.14Z"/>
      <path class="cls-1" d="M86.94,21.51c1.08-1.29,1.92-2.69,2.5-4.19-1.84,1.99-3.84,3.7-6.01,5.13-2.17,1.43-4.48,2.6-6.93,3.52-2.45.92-5.01,1.6-7.69,2.04-2.59.43-5.27.64-8.03.65v-.14c-.41,0-.63-.22-.67-.66-.04-.44,0-.98.1-1.61.11-.63.22-1.31.35-2.02.13-.71.16-1.34.09-1.88-.07-.54-.29-.92-.66-1.16-.37-.23-1.02-.19-1.93.12-.76.31-1.6.72-2.52,1.22-.92.5-1.91,1.04-2.97,1.61-1.06.58-2.21,1.15-3.43,1.73-1.22.58-2.52,1.1-3.88,1.57-4.14,1.23-8.13,2.07-11.98,2.52-3.85.45-7.63.5-11.34.16-3.71-.34-7.38-1.09-11-2.24-3.62-1.15-7.27-2.72-10.94-4.72.72.7,1.32,1.3,1.8,1.8.48.5.91.93,1.29,1.29.38.36.76.68,1.13.95.37.27.8.54,1.27.81.48.26,1.06.54,1.74.83.68.29,1.53.64,2.55,1.05,3.98,1.52,8.02,2.55,12.11,3.09,4.09.54,8.16.62,12.22.23,4.05-.38,8.04-1.21,11.97-2.49s7.72-2.99,11.4-5.14c-.16.63-.24,1.29-.26,2.01-.02.71.08,1.37.31,1.98.22.61.6,1.11,1.11,1.52.46.37,1.1.56,1.89.6v.02c.05,0,.11,0,.16,0,.03,0,.06,0,.1,0h0c1.94-.02,3.9-.16,5.87-.44,2.06-.29,4.07-.72,6.02-1.29,1.95-.57,3.81-1.26,5.58-2.09,1.77-.83,3.38-1.78,4.85-2.84,1.46-1.06,2.74-2.24,3.82-3.53Z"/>
      <path class="cls-1" d="M101.22,29.1c.8-1.5,1.28-3.07,1.45-4.7.17-1.63-.03-3.21-.6-4.73-.55-1.15-1.15-2-1.8-2.55-.65-.55-1.31-.87-1.98-.97-.66-.1-1.32,0-1.96.31-.64.3-1.23.72-1.76,1.25s-.98,1.14-1.36,1.83c-.38.69-.64,1.39-.78,2.08-.14.69-.14,1.36,0,2.01.14.64.46,1.18.97,1.6.51.42,1.22.7,2.12.83.91.14,2.07.05,3.47-.26-.29,1.07-.8,2.19-1.51,3.34-.71,1.15-1.7,2.23-2.96,3.22s-2.82,1.84-4.69,2.53c-1.86.69-4.1,1.12-6.69,1.27h-3.69c2.64.84,5.1,1.23,7.4,1.16,2.29-.07,4.38-.46,6.24-1.17,1.86-.71,3.49-1.69,4.86-2.93,1.38-1.24,2.47-2.61,3.27-4.12ZM97.46,24.5c-.52-.04-.99-.12-1.42-.23-.43-.12-.79-.27-1.07-.47-.28-.19-.45-.45-.51-.76-.06-.31.02-.69.25-1.14.22-.45.64-.98,1.25-1.58.47-.6.92-.9,1.36-.88.44.02.81.26,1.11.72.3.46.51,1.08.63,1.86.12.78.1,1.63-.06,2.55-.51,0-1.02-.02-1.54-.06Z"/>
      <path class="cls-1" d="M117.57,18.41c-.74-.68-1.68-1.12-2.83-1.3-1.14-.19-2.49-.07-4.03.35-1.54.42-3.26,1.25-5.16,2.48.66-.18,1.44-.33,2.33-.47.89-.14,1.79-.19,2.7-.18.91.02,1.77.14,2.58.35.81.22,1.47.58,1.98,1.08.51.51.81,1.18.91,2.01.1.83-.12,1.87-.64,3.12-.72,1.21-1.51,2.26-2.37,3.13-.86.88-1.77,1.64-2.74,2.27s-1.99,1.19-3.06,1.66c-1.07.47-2.18.9-3.33,1.3-1.14.4-2.31.8-3.5,1.2-1.19.4-2.39.85-3.6,1.36,2.93.12,5.56-.05,7.88-.51,2.32-.46,4.36-1.11,6.11-1.95,1.75-.84,3.22-1.82,4.41-2.94,1.19-1.12,2.13-2.29,2.81-3.52.68-1.22,1.11-2.43,1.27-3.63.17-1.2.11-2.3-.18-3.3-.28-1-.8-1.84-1.54-2.52Z"/>
      <path class="cls-1" d="M147.26,21.78c.93-.96,2.14-1.91,3.65-2.87,1.5-.96,3.29-1.88,5.36-2.78,2.07-.9,4.43-1.69,7.09-2.37-1.07-.84-2.29-1.28-3.63-1.33-1.35-.05-2.72.18-4.13.67s-2.8,1.21-4.19,2.14c-1.39.93-2.65,1.96-3.79,3.09-1.14,1.13-2.11,2.3-2.92,3.52-.8,1.21-1.34,2.35-1.61,3.41-.27,1.06-.22,1.99.16,2.78s1.18,1.34,2.39,1.66c.31.08.85.13,1.63.15.77.02,1.64.04,2.61.07s1.96.08,2.99.16c1.03.08,1.95.22,2.77.44.82.22,1.47.51,1.95.88.48.37.65.86.51,1.46-.14.6-.65,1.34-1.54,2.21-.89.87-2.29,1.92-4.2,3.15-2.68,1.68-5.23,2.93-7.66,3.76-2.43.83-4.66,1.27-6.68,1.33s-3.79-.25-5.3-.92c-1.51-.67-2.68-1.66-3.5-2.94s-1.25-2.88-1.29-4.78c-.04-1.89.4-4.03,1.32-6.42.92-2.38,2.37-5,4.35-7.85,1.98-2.85,4.57-5.88,7.78-9.08-3.69,2.17-6.85,4.78-9.48,7.82-2.63,3.05-4.56,6.56-5.79,10.55-.74,2.27-1.08,4.28-1.03,6.05.06,1.77.41,3.31,1.07,4.61.65,1.31,1.57,2.4,2.74,3.27,1.17.87,2.5,1.53,4,1.99,1.49.46,3.11.72,4.83.79,1.73.07,3.49-.04,5.29-.32,1.8-.28,3.57-.74,5.32-1.36,1.75-.63,3.39-1.4,4.94-2.33,1.54-.93,2.92-2,4.15-3.21,1.22-1.21,2.2-2.55,2.94-4.01.68-1.31,1.04-2.42,1.07-3.33s-.18-1.67-.62-2.29-1.06-1.1-1.86-1.45c-.8-.35-1.69-.62-2.67-.79-.98-.18-1.99-.28-3.05-.31s-2.05-.02-2.97.01c-.93.04-1.75.09-2.46.15-.71.06-1.23.09-1.54.09-.68-.12-1.11-.43-1.27-.95-.17-.52-.06-1.16.32-1.93.38-.77,1.04-1.64,1.96-2.59Z"/>
      <path class="cls-1" d="M198.69,13.4c-.51-.04-.98.03-1.42.22-.44.19-.8.47-1.07.86-.45.63-.61,1.23-.47,1.82.14.59.59.98,1.35,1.17.41.1.8.07,1.16-.09.36-.16.67-.39.92-.69.25-.3.45-.64.6-1.03s.21-.74.19-1.07c-.02-.33-.13-.62-.32-.85-.2-.23-.51-.35-.94-.35Z"/>
      <path class="cls-1" d="M199.45,23.02c-.12,0-.24.15-.37.48-.13.33-.23.87-.31,1.61-.25.7-.58,1.29-.97,1.76-.39.47-.8.84-1.22,1.11-.42.27-.83.45-1.23.54-.4.09-.73.1-.98.04v.06c-.42-.05-.79-.24-1.08-.58-.35-.4-.68-.92-1-1.55-.31-.63-.63-1.35-.94-2.14-.31-.79-.7-1.58-1.16-2.36-.46-.78-1.02-1.52-1.68-2.21-.66-.69-1.49-1.26-2.49-1.71-1-.45-2.19-.73-3.57-.83-1.39-.11-3.04.02-4.95.4-1.97.45-3.6,1.01-4.88,1.67-1.28.66-2.26,1.38-2.93,2.14s-1.06,1.55-1.16,2.37c-.1.82.04,1.61.42,2.37s.98,1.48,1.8,2.14c.82.66,1.81,1.23,2.97,1.68,1.16.46,2.48.79,3.94,1s3.04.23,4.72.07l4.89-1.23c-4.02-.51-7.33-1.09-9.93-1.76-1.11-.29-2.12-.62-3.02-.97-.9-.35-1.56-.73-1.99-1.14-.43-.41-.56-.85-.38-1.33.18-.48.8-.99,1.88-1.54,2.07-1.07,3.87-1.78,5.39-2.11,1.52-.33,2.85-.41,3.97-.23,1.12.18,2.08.56,2.86,1.14.78.59,1.47,1.27,2.07,2.07.6.79,1.12,1.62,1.58,2.49.46.87.93,1.68,1.41,2.43.48.75.99,1.39,1.54,1.92.55.53,1.2.83,1.96.91v-.09c.48,0,.99-.12,1.52-.35.62-.27,1.21-.69,1.74-1.26.54-.57.99-1.28,1.36-2.14.37-.86.58-1.86.62-2.99,0-.59-.04-1.04-.12-1.38-.08-.33-.18-.5-.29-.51Z"/>
      <path class="cls-1" d="M217.53,4.08c.41.1.8.07,1.16-.09.36-.16.67-.39.92-.69.25-.3.45-.64.6-1.03s.21-.74.19-1.07c-.02-.33-.13-.62-.32-.85-.2-.23-.51-.35-.94-.35-.51-.04-.98.03-1.42.22-.44.19-.8.47-1.07.86-.45.63-.61,1.23-.47,1.82.14.59.59.98,1.35,1.17Z"/>
      <path class="cls-1" d="M233.73,14.57c-.33-.9-.9-1.37-1.7-1.42-.8-.05-1.67.24-2.61.86-.76.14-1.46.21-2.11.22-.64.01-1.29-.02-1.95-.09-.65-.07-1.34-.17-2.07-.31-.72-.14-1.54-.28-2.46-.44-2.6-.57-4.8-.54-6.61.07-1.81.62-3.19,1.63-4.15,3.03-.96,1.41-1.46,3.12-1.51,5.14-.05,2.02.39,4.16,1.3,6.4-.31.31-.63.49-.94.54-.16.02-.31.02-.47.04v-.02c-.92,0-1.65-.29-2.18-.88-.54-.59-.93-1.36-1.19-2.33-.25-.97-.39-2.08-.4-3.35-.01-1.27.05-2.59.19-3.97.14-1.38.32-2.76.56-4.15.23-1.39.47-2.68.72-3.88.24-1.2.47-2.27.67-3.19.21-.93.35-1.62.42-2.07-1.74,3.36-3.04,6.36-3.91,9.01-.87,2.65-1.41,4.98-1.63,7-.22,2.02-.16,3.74.18,5.14.33,1.41.83,2.54,1.51,3.41.67.87,1.46,1.49,2.36,1.88.9.38,1.81.54,2.72.48v-.02c.45,0,.91-.02,1.35-.05.6-.05,1.22-.23,1.85-.54,0,.16.03.28.1.37.07.09.14.17.21.25.07.08.14.17.21.26.07.1.1.22.1.38v-1.26c1.62-.51,3.07-1.14,4.34-1.89,1.27-.75,2.42-1.56,3.46-2.43,1.04-.87,2-1.77,2.9-2.7.9-.93,1.8-1.83,2.7-2.7.9-.87,1.84-1.68,2.83-2.43.99-.75,2.09-1.38,3.33-1.89.31,0,.61-.07.89-.21.28-.14.52-.32.72-.56.19-.23.32-.5.38-.81.06-.3.02-.61-.12-.92ZM222.01,20.12c-.84.85-1.58,1.58-2.23,2.2s-1.24,1.15-1.77,1.61c-.54.46-1.12.9-1.74,1.32-.63.42-1.35.85-2.17,1.29s-1.83.94-3.02,1.51c-.29-1.37-.49-2.71-.59-4.03-.1-1.32.02-2.51.37-3.59.34-1.07.96-1.97,1.86-2.68.9-.71,2.19-1.15,3.87-1.3.29,0,.73.03,1.32.1.59.07,1.26.14,2.02.21.76.07,1.59.14,2.48.21.89.07,1.79.1,2.71.1-1.23,1.19-2.27,2.21-3.11,3.06Z"/>
    </g>
  </g>
</svg>