<?xml version="1.0" encoding="UTF-8"?>
<svg id="Layer_2" data-name="Layer 2" xmlns="http://www.w3.org/2000/svg" viewBox="0 0 235.73 135.19">
  <defs>
    <style>
      .cls-1 {
        fill: #fff;
      }

      .cls-2 {
        fill: #231f20;
        font-family: 'MSM_Ayda', MSM;
        font-size: 7.46px;
      }
    </style>
  </defs>
  <g id="Layer_1-2" data-name="Layer 1">
    <g>
      <path d="M141.47,101.62c-2.99-.15-6.6.49-8.65-2.43-1.73-2.48-1.5-8.83-.29-11.54,2.3-5.14,14.25-8.32,19.4-10.41l3.23-1.8c-5.46,1.99-12.83,3.44-17.94,6.03-.63.32-4.37,2.77-4.63,3.13-1.92,2.56-1.09,9.29-2.98,10.61-.8.56-1.79.26-2.66.57-3.9,1.39-8.94,3.94-12.78,4.94-1.12.29-4.21.87-4.75-.31-.23-.5.58-2.42-1.2-2.42-.82,0-2.53,2.44-3.82,3.04-3.02,1.41-10.59,2.91-13.86,2.57-8.8-.92-18.02-.59-26.92-1.69-.65-.08-2.28-.05-1.92-1.09h21.35c.08-.87.13-1.1-.69-1.53-1.13-.58-5.33-1.01-6.76-1.07-2.76-.11-6.18.61-8.8.55-3.34-.07-8.66-.77-12.09-1.24-1.38-.19-3.07-.3-4.29-.95,2.19-1.89,7.85-1.76,10.7-1.44,1.18.13,1.69.68,2.43.79,1.93.28,3.92.32,5.8.85.21-1.15-.28-.66-.88-.91-3.45-1.42-7.57-2.72-9.98-5.75-4.92-6.19-3.07-17.62,2.19-23.17.74-.78,7.23-6.22,7.76-6.37,1.49-.41,4.15,3.15,5.79,4.13,4.37,2.58,7.4,1.95,11.79-.21,5.28-2.6,8.03-7.13,10.79-12.17,3.09-5.63,3.43-10.28,2.75-16.59-.29-2.73-1.98-2.44-.47-5.71,1.18-2.57,4.1-4.11,6.3-5.76,5.24,2.74,11.05,4.15,16.88,5.11l11.73-4.69c.66,0,6.54,4.57,7.46,5.4,2.5,2.26,4.59,5.08,5.92,8.18,2.23,5.18,4.92,11.16,4.97,16.79.05,5.77-2.27,8.51,3.41,12.71,2.31,1.7,5.17,1.99,6.58,5.1.02,2.15-2.63,2.26-3.45,3.07-.16.16-1.32,2.28-1.53,2.7-1.22,2.5-3.49,11.49-4.6,12.73-.56.62-5.24,2.09-6.47,3.6-.65.79-.28,2.02-.86,3.17-.64,1.27-2.82,2.62-3.98,3.47.97.05,1.87-.1,2.86.17.91.25.64,1.35,1.36,1.03,2.11-.93-1.45-1.58-1.3-2.62l2.57-2.51c1.46-.04,2.68,2.01,2.61,3.33l-2.46,2.82c-.07.17,2.02.79,1.61,1.81-1.54.56-2.23-1.41-2.49-1.56-.28-.16-.86.32-1.27.24-.51-.09-.94-.77-1.46-.94-1.3-.41-2.78.22-3.63,1.25.64.53,1.1,1.17,1.6,1.81-2.53.32-3.88-1.7-5.63.2,1.32,2.01,2.43,1.2,4.42,1.01l-1.21,2.01c2.46,1.37,3.21-.56,5.64-.81l-2.52-1.19c-.47-.25-.47-.92-.7-1.22,1.27-.16,2.32-1.17,3.63-1.2l-1.61,1.21c.35,2.54,3.22.35,4.83.4.13.1-1.6,2.59-1.84,2.79-.89.74-2.81.73-2.94,2.31s1.83,1.21,2.76.94l-3.62,3.42,2.41,1.21c-2.11,1.85-3.8-1.28-6.03.61-.73,1.02,4.17,3.02,5.23,2.01-1.27,2.35-3.62,1.55-5.61.57-.87-.43-1.07-1.87-2.44-.97v-1.22c-1.99.85-3.19-.45-5.03-.81-.4.49,1.5,1.26,1.8,1.42,2.55,1.35,5.59,1.96,7.66,3.82-2.89.44-5.27-1.42-7.73-2.13-2.54-.74-5.68-1.65-8.2-2.28-1.01-.25-.03,1.4-.58,2,2.06-.26,7.37-.56,6.85,2.42.98.25,1.32-1.29,2.14-1.16.24.04,3.39,1.81,4.3,2.17,1.26.49,3.04,0,3.84,1.83.23.53-.24,1.12-.21,1.17.12.18,4,1.19,4.22,1.19,2.16.03,1.57-1.92,2.11-3.1.43-.93,6.67-3.23,6.96-2.91l.4,1.21c-.3-2.08,2.21-3.12,3.92-3.12.52,0,.83.61,1.35.53.36-.06,6.29-2.78,6.57-3,.46-.38.1-1.24.65-1.86,1.4-1.58,12.53-5.2,15.31-6.45.87-.39,2.17-1.63,2.73-1.75.89-.2,1.16.82,2.11.6.4-.09,6.17-3.03,6.43-3.28.78-.74.57-1.79,1.1-2.23,1.1-.92,4.68-2.09,6.17-1.58.03-2.26,1.37-4.18,1.89-6.37.77-3.21,1.06-6.41,1.93-9.75,1.05-4.02,6.67-17.89,6.16-20.63-.09-.49-.8-1.17-.78-1.87l-1.33-.07c-15.34,5.49-31.75,8.56-46.26,16.1-7.04,13.83-10.95,28.99-15.51,43.81l-1.09,1.29-1-.77-.41,2.42-1.15-.93c2.07-6.16,4.05-12.39,5.47-18.72,2.84-6.78,4.86-13.88,7.46-20.74.71-1.86,2.56-7.13,3.78-8.31,1.38-1.34,7.35-3.8,9.43-4.67,14.72-6.16,30.14-10.6,45.44-15.06l.72,1.96c-3.53,11.88-8.54,23.3-11.13,35.45,7.72,1.03,15.42.54,23.18.39l7.84,1.22c-7.39,1.51-15.35.63-22.75,1.22-.81.06-2.87.3-3.53.5-1.16.35-2.3,1.91-3.93,1.51-.1,1.07-.02.65.6.8,2.89.66,5.4,1.5,8.41,1.27l5.49,1.15c-3.35.8-6.84.11-10.23.45-2.26.22-10.94,2.02-12.96,2.76-1.08.39-1.82,1.44-3,1.64-1.34,1.93,7.64.7,8.05,2.41-4.32.83-9.67-.21-13.8.91-.91.25-8.54,4.1-8.76,4.54,3.39,2.03,7.86.47,11.68,1.41.12.08-.21.51-.4.61-1.29.64-7.42.05-9.47.2-1.14.08-2.17.62-3.27.76-3.9.49-6.96.21-10.23,3.07-.17.69,1.55,1.4,1.81,1.4h9.06c-.05.58-1.79.7-2.26.76-5.14.58-9.87,1.59-14.86,1.98-5.28.41-7.24,3.22-11.56,4.25-.67.16-3.21.54-3.81.6-.53.05-.96-.68-1.56-.74-1.28-.13-1.9.66-4-.02-5.16-1.68-5.44-2.66-11.28-2.78-1.35-.03-2.81-.98-4.25-.82-.36-1.56,2.4-.38,2.01-2.01-2.41-.33-5.29-1.97-7.55-2.33-2.41-.38-8.68-.89-11.18-.93-1.95-.03-3.86.73-5.84.43-1.11-.96,3.87-1.9,4.27-1.97.96-.16,2.01-.01,3.07-.15.4-.05,1.61-.12,1.52-.69-1.16,0-2.44-1.12-3.46-1.21-2.38-.21-5.63-.36-8.01-.38-.96,0-2.31.21-2.63-.83.51-.66,5.16.24,5.64-1.21-1.99.6-4.7-2.56-5.52-2.76-.89-.22-3.17.92-4.55-.07l.81-1.8,3.62-1.41c-3.83-.89-8.01-.64-11.84-1.26-.83-.13-2.3-.26-2.66-1.16.71.02,1.4.07,2.11-.11,5.71-1.49,14.69-1.04,20.91-1.73l23.92-7.41c.95.88.34,2.5,1.95,2.76l.25.83-6.04,3.43c.27.56,3.89,1.07,4.59,1.01,1.83-.17,4.41-2.87,6.68-2.41,1.07.95-5.29,3.95-6.29,4.01s-1.81-.41-2.77-.43c-.83-.01-1.61.44-2.39.41-2.29-.08-4.7-2.88-7.26-2.82-.83.02-6.22,1.97-5.86,2.44,3.87.49.88,3.09-1.17,3.43-1.73.29-5.22-3.04-6.08-1.2l4.54,2.7c3.01.91,7.37,1.09,9.56,3.54-3.19-.8-5.67-1.3-8.78-2.3-3.3-1.06-6.41-2.44-9.75-3.34l.81,2.81,1-2.01.61,2.41,2.01-1.61v2.41s1.81-1.2,1.81-1.2l.61,2.01h1.21s.21-1.21.21-1.21l1.21,1.61,1.4-.8.61,1.61,1.4-1.2c-.05,1.35-.35,1.9,1.01,2.41l.8-2,1.21,3.21,1-2.01.61,3.22.6-2.01h1.21s0,2.42,0,2.42c1.08.14,1.02.02,1.41-.81l1.21,1.21,1-.82c.29-.49-3.51-2.47-3.85-2.8-.51-.48-.47-1.11-.58-1.22,3.09.78,6.09,1.93,9.26,2.41l-2.81-1.81c1.21-1.64,2.96.77,4.12.54.27-.05,2.36-1.16,1.52-1.76-2.17-1.54-4.97.28-7.05,1.02l.2-1.21c-.38-.06-.88.08-1.21,0,.27-.4.29-1.05,1.21-1.61-1.48-.35-2.48-1.13-4.03-.4.61,1.21,1.57,1.69,2.82,2.01-1.3,1.92-6.97-.55-4.41-2.6,1.88-1.51,2.83-.91,4.46-1.25,1.05-.21,2.31-1.43,3.36-1.81,5.7-2.09,9.65-2.72,14.73-6.42ZM138.52,44.57c-3.08.11-6.55,1.7-7.69,4.72-.37.98-1.02,4.45-.99,5.42s2.51,4.71,3.34,5.44c3.01,2.65,13.12.05,14.61-3.57.91-2.21,1.09-4.17.2-6.4-1.6-4.02-5.31-5.75-9.48-5.61ZM114.35,60.81c.52-.43,2.57-3.2,2.75-3.89,1.09-4.15-2.3-10.75-6.55-11.6-4.9-.99-12.82,4.21-12.58,9.34.06,1.26,3.13,7.53,4.01,8.09,2.69,1.68,9.93.05,12.36-1.93ZM84.66,92.36c-.03,1.42-1.82,4.35-.43,5.45.17.14.82-.2,1.2,0,1.16.62,2.61,2.03,3.98,2.48,1.19.39,2.83.27,3.81.62.61.22.95.98,1.36,1.06.53.11,9.85-2.97,10.22-3.36,1.4-1.44.31-4.06.37-5.64.12-3.45,1.46-15.84-1.34-17.97-1.37-1.04-9.75-1.34-11.72-1.17-2.39.22-9.2,1.46-9.08,4.62l1.59.86c.3.96-1.44,6.48-1.59,8.01-.13,1.31.55,3.82.38,4.38-.41,1.31-3.71.76-4.2-.55-.52,1.11,2.96,3.53,3.99,3.19l.63-.62-.39-1.36h1.21ZM77.41,82.28c-.35-.61-.59-1.48-1.03-1.98-1.98-2.27-3.77-3.3-6.54-4.34-1.32-.49-2.79-.79-4.11-1.32,1.08,2.15,3.67,2.06,5.51,3.14l6.17,4.5ZM82.65,80.28c-1.12-.44-5.08,3.38-4.83,3.62,1.35,1.16,5.18-3.32,4.83-3.62ZM81.84,84.3c-2.64.45-2.19,5.19.4,5.64l-.4-5.64ZM77.41,93.57c-.39-.43-2.68,2.03-3.4,2.03l-4.25,1.18c1.67-.07,3.44.28,5.06-.37.52-.21,3.3-2.05,2.59-2.85ZM129.38,99.61c-.98-.9-4.89.83-5.92,1.53-.52.35-1.1.45-.93,1.28.79,1.02,5.14-1.11,6.09-1.77.49-.34.98-.02.76-1.04ZM139.05,111.3c-1.58.01-1.35-1.74-2.25-2.39-1.23-.89-5.14-2.24-5.35.23-.17,2.04,4.13.17,5.19.14l-3.22,2.82.26.79c2.27,1.2,3.76.09,5.38-1.6ZM131.4,110.49c-2.09-.42-3.69-2.12-5.64-.21,1.91,1.07,2.83,1.72,5.05,1.01.56-.18.71.25.59-.81ZM143.48,114.12c-2.04-.66-4.12-2.23-5.23.59,1.82,2.19,3.44.96,5.23-.59ZM133.41,116.93c2.25.88,3.81,2.38,5.63-.2-1.78-1.59-4.63-2.69-5.63.2ZM148.32,126.19c.37.33,5.88-1.88,4.83-3.22-1.55,1.1-4.24,1.31-4.83,3.22ZM139.85,126.6c1.38-1.23-5.5-2.36-6.04-2.01-.09.58.71.56,1.12.68,1.63.45,3.33.61,4.91,1.33Z"/>
      <path d="M150.87,27.36c4.6,4.75,9.33,7.12,13.08,13.31,4.68,7.75,3.51,14.66-2.17,21.44-1.97,2.35-2.99,3.8-6.33,3.16-1.75-.34-1.77-3.68-1.89-5.34-.18-2.67.18-5.4.01-8.07-.29-4.6-3.2-11.31-5.5-15.45-7.08-12.75-22.07-18.27-36.22-16.56-4.25.51-10.49,4.47-13.08,7.87-3.63,4.77-.28,6.91-.39,11.28-.18,7.31-3.02,14.85-8.06,20.15-5.72,6.03-11.01,7.62-17.94,2.19-3.61-2.83-4.96-5.47-5-10.22-.03-2.74,1.1-9.13,1.69-12.01s3.35-8.82,5.78-10.33c1.44-.9,3.77-1.15,5.18-2.07,1.6-1.04,4.25-4.18,6.05-5.63,10.09-8.14,21.53-12.35,34.64-12.9,6-.25,14.31,3.91,18.92,7.66,4.48,3.64,7.41,7.6,11.22,11.54ZM151.94,35.55c-.08-3.52-2.31-7.13-4.44-9.86-2.51-3.21-6.51-5.99-9.93-8.2-5.35-3.45-9.11-5.11-15.63-5.32-13.06-.42-33.82,5.7-40.67,17.78-2.06,3.63-1.81,8.74-3.86,12.45,7.03-.78,9.16-8.46,12.9-13.08,10.41-12.84,31.82-17.86,46.27-9.23,5.49,3.28,10.77,9.46,14.36,14.66.3.44-.12,1.06.99.81ZM78.22,29.92c-1.4-1.13-4.99,5.39-5.44,6.44-1.41,3.3-2.66,13.23.64,15.47,3.25,2.21,9.83,2.02,12.65-.97,2.65-2.81,7.13-13.34,4.43-16.91-3.97,3.67-6.31,13.04-11.49,15.04-3,1.16-2.94-1.95-3.4-3.38-.21-.64-.78-1.19-.93-1.89-.67-3.07,2.43-10.63,3.54-13.81ZM95.14,43.21c.84-3.37,1.39-6.91-1.2-9.67.18,6.08-1.94,11.73-4.37,17.19-.99,2.22-2.92,3.41-1.27,5.77l1.97-1.49-.76-2.13,1.8.81c2.29-2.38-.48-2.64-.59-4.84l1.81,1.6c1.49-1.63.96-2.61-.6-3.82,1.1-1.44,1.21.9,2,1l.84-3.36-1.24-1.47,1.6.4ZM162.42,48.46c2.98-.71-.72-6.22-2.01-7.66,1.83,3.65,1.26,7.04.41,10.85l1.98.42c.53-1.44.71-2.41-.39-3.61ZM156.37,57.31c.02-1.22,1.67-1.8,1.94-2.7.41-1.38.07-8.02-.53-9.37-.28-.63-1.96-1.92-2.6-2.43l.4,10.27.8,4.23ZM162.82,52.48l-2.36.45c-.01,1.65-1.14,3.54-1.18,5.1-.07,2.71,3.53.83.72-1.53l1.96-.06c1.28-2.15-.34-1.6-.74-3.16l1.61-.81ZM83.46,56.91c-.17,1.09.6,1.83,1.47,2.35,2.07-.39,3.8-1.89,1.56-3.46l-3.03,1.11ZM79.4,57.33l-2.39-.42.05,2.36,2.36.46-.02-2.4ZM82.61,57.36l-2.37-.05.46,2.36,2.36.05-.45-2.37Z"/>
      <path d="M85.07,110.89l1.88,4.38c2.8.94,4.31-3.6,6.19-1.78,1.68,1.63,2.75,7.37,2.38,9.66-.25,1.54-.93,3.58-1.29,5.56-.94,5.2-3.05,3.05-6.74,2.32.47,6.91-6.58,3.62-10.04,1.38-4.99-3.23-6.78-7.39-10.71-11.45-1.37-1.42-5.17-3.65-5.03-5.4.24-2.96,7.25-2.67,4.23-6.69-1.74-2.32-3.19-2.25-5.46-2.99-2.35-.77-3.05-2.63-.2-2.63,5.47,0,5.97,2.96,9.09,4.22,1.32.53,3.55.44,5.33,1.11,1.72.65,4.08,2.85,5.43,3.06,1.01.16,4.71-.94,4.93-.74ZM92.62,120.25c-.32-.28-1.69-.4-2.19-.84l-.74.3c-1.08,1.29-1.81,2.71-.4,4.09,2.77,2.71,5.13-1.99,3.34-3.55ZM82.11,121.11c-2.19-2.22-4.75.28-3.52,2.82,2.43,1.54,6.31.02,3.52-2.82Z"/>
      <path d="M25.45,102.43c1.04-2.24,7.69-5.55,7.99-7.54.15-1-1.8-7.48-1.96-9.57-.41-5.41.03-11.17,1.64-16.32,1.56-.24,2.45,1.03,3.93,1.48,2.48.77,6.01.72,8.12-.91,1.06-.83,1.61-5.08,2.96-1.71,2.49,6.19,3.4,17.72,2.26,24.26-.76,4.37-5.37,6.29-9.43,6.27-1.66,0-3.29-1.08-5.14-.72-3.64.71-6.39,5-10.37,4.75ZM36.21,77.52c-5.33,1.13.25,8.61,2.89,3.69.92-1.71-.68-4.15-2.89-3.69ZM47.94,77.93c-5.87-.96-5.51,4.89-.12,4,1.42-1.37.92-2.47.12-4Z"/>
      <path d="M207.05,66.66c1.49,1.04-2.49,9.64-2.33,11.6-.89-.22-.55-.58-.54-1.11.02-1.39,1.1-5.27.9-5.87-.91-2.85-7.67-.65-9.71-.16-8.06,1.94-15.87,5.07-24.08,6.33.13-.76.85-.66,1.36-.85,4.82-1.8,10.48-3.06,15.46-4.68,4.45-1.44,8.9-3.5,13.38-4.75,1.21-.34,4.61-1.18,5.56-.51Z"/>
      <path d="M182.23,90.42c.34-.19.92-.16,1.27-.02.86.36,3.76,6.01,3.43,7.31-.93,2.16-3.1.45-4.46.76-1.69.39-2.29,3.27-4.45,2.69-1-.27-2.09-2.08-1.74-3.17.71-2.23,4.82-5.35,5.95-7.57Z"/>
      <path d="M164.83,80.28l-1.86,3.21c.85,5.36-2.85,9.8-4.66,14.24-1.85,4.54-3.28,9.31-5.04,13.89-.2.51-.24,1.18-.92,1.3-.16-4.22,2.61-8.14,3.81-12.1,1.15-3.8,1.63-5.38,3.05-9.04,1.25-3.23,1.86-8.2,4.25-10.65.42-.43.58-1.02,1.37-.84Z"/>
      <path d="M118.84,128.15c-.09.14-2.62,1.2-2.98,1.25-2.31.35-6.84-.67-6.18-3.76.44-1.26,8.07-1.81,9.03.14.24.5.39,1.94.13,2.36Z"/>
      <path d="M57.16,50.52c2.97-.83,5.11,7.22,1.11,7.99-4.73.91-4.22-6.27-1.11-7.99Z"/>
      <path d="M179.62,53.81c1.5,1.31,1.62,6.46-.29,7.32-2.57,1.16-4.01-2.18-3.54-4.33.29-1.32,2.3-4.33,3.83-2.98Z"/>
      <path d="M30.68,96.39c.87.92-2.2,1.2-2.6,1.22-1.29.06-2.48-.29-3.57-.27-3.93.09-8.08.76-11.95-.16-.57-.59.04-.73.6-.8,1.48-.19,3.28.09,4.84,0,1.98-.12,11.69-1.05,12.69,0Z"/>
      <path d="M52.04,109.28v2.01c-1.41.25-9.65,1.09-9.66-.6.42-.5.73-.87,1.41-1,.99-.19,7.96-.71,8.25-.41Z"/>
      <path d="M199.48,112.51c-1.34,1.98-4.3,2.23-6.55,1.91-.84-.12-3.44-.97-2.07-1.95,2.97-.77,5.69-.98,8.62.04Z"/>
      <path d="M114.75,130.31c.68-.21,2.76-.23,3.35.12l.63,2.22c-.84,1.6-5.56,1.22-5.4-.53.05-.54.86-1.63,1.43-1.8Z"/>
      <path d="M184.04,82.74c2.5-.68,1.79,5.87-.87,5.62-2.5-.24-.86-5.14.87-5.62Z"/>
      <path d="M175.78,103.58l5.17-1.15c.59.56-2.53,3-3.12,3.15-2.43.6-5.68-4.44-3.92-5.16l1.88,3.16Z"/>
      <path d="M168.9,62.99c1.72-1.21,4.33,3.36,1.69,4.33-.47.15-.89.03-1.34-.11-1.92-.62-.87-3.86-.35-4.22Z"/>
      <path d="M42.27,62.85c-.55.55-1.96.51-2.72.5-.1-6.87,5.14-2.9,2.72-.5Z"/>
      <path d="M183.77,101.62c-.36-.91.91-1.08,1.52-1.12,1.73-.09,3.13,1.12,3.31-1.7l1.59,1.06c-.52,3.54-4.01,1.63-6.42,1.76Z"/>
      <path d="M167.25,130.23c-.16.78-.81.71-1.41.8-2.08.33-4.2.55-6.25,0-1.6-1.68,7.03-1.32,7.65-.8Z"/>
      <path d="M151.94,94.78l-2.01,1.81,1.22.79-.22,1.02-3.42-1.82c.55-1.92,2.75-1.92,4.43-1.8Z"/>
      <path d="M187.61,87.53c.82-.2,1.68,1.42,1.41,2.19-.03.81-1.47,1.91-2.17,1.77-2.16-.42.29-3.85.76-3.96Z"/>
      <path d="M211.16,108.07c-1.82.66-4.15,1.72-5.63-.2.03-1.12,5.17-1.67,5.63.2Z"/>
      <path d="M178.34,87.53c1.69-.36,1.2,4.63-.81,4.02-1.36-1.36-.54-3.11.81-4.02Z"/>
      <path d="M62.91,37.17c-.22-.87.29-4.68,1.81-4.03,1.39.6.38,4.99-1.81,4.03Z"/>
      <path d="M97.96,124.59c.93-.47,6.46-.82,6.44.2-1.16,1.42-3.44.96-5.02.6-.57-.13-1.25.02-1.41-.8Z"/>
      <path d="M162.41,111.29c-2.07-1.99-3.05-5.66-3.21-8.46.68.11.72.79.92,1.3.89,2.29,1.68,4.78,2.3,7.16Z"/>
      <path d="M194.65,58.12c-.41-1.51-.42-3.53,1.4-4.03,1.19.25.9,4.75-1.4,4.03Z"/>
      <path d="M48.81,105.25c.1.7-.92.38-1.4.4-2.5.1-5.05.08-7.46-.6-.04-1.19,7.96.05,8.86.21Z"/>
      <path d="M122.88,128.27l-.18,1.6c-5.12,1.78-3.6-3.22.18-1.6Z"/>
      <path d="M163.62,23.47c.59,1.31.82,3.91-1.36,3.18-1.47-.49-.52-3.75,1.36-3.18Z"/>
      <path d="M50.42,101.23c.79-.2,4.8-1.06,4.43.59-.25,1.1-4.15,1.24-4.43-.59Z"/>
      <path d="M103.6,129.02c.07.59-1.06.72-1.44.76-1.26.13-2.54,0-3.79.04v-1.21c1.76.02,3.55-.2,5.24.41Z"/>
      <path d="M108.72,129.09c2.76-.8,2.84,2.27.31,2.18-1.56-.06-1.86-1.72-.31-2.18Z"/>
      <path d="M81.04,105.65c.03.6-1.44.71-1.86.76-1.47.16-4.86.54-5.79-.76h7.65Z"/>
      <path d="M32.29,101.62c.92-1.5,3.53-.62,4.99-.76l3.07.76h-8.06Z"/>
      <path d="M133.01,129.83c.38,1.23-1.44.87-2.21.8-.89-.09-2.63-.27-3.03-1.2,1.78-.75,3.43.28,5.24.4Z"/>
      <path d="M164.44,89.94c.36-1.66.59-3.54,1.08-5.16.2-.66.66-2.21,1.33-2.49-.66,2.41-.73,5.78-2.41,7.65Z"/>
      <path d="M162.82,115.73l-4.42,2.22-2.43.18c.13-.76.85-.66,1.36-.85,1.69-.63,3.71-1.22,5.48-1.56Z"/>
      <path d="M56.47,115.73l-.24,1.23c-1.07.53-1.91.31-2.98-.04.16-1.85,1.98-1.5,3.22-1.2Z"/>
      <path d="M200.69,89.14c-.23,1.92-.57,4.68-2.01,6.04.15-1.66.67-3.5,1.15-5.1.2-.66-.32-1.14.85-.94Z"/>
      <path d="M23.43,100.42l-3.04.81-1.79-.62c0-1,4.07-.62,4.82-.2Z"/>
      <path d="M30.28,109.27c.28-1.15,4.04-1.02,4.02-.2-1.07,1.7-2.49.4-4.02.2Z"/>
      <path class="cls-1" d="M84.66,92.36h-1.21s.39,1.36.39,1.36l-.63.62c-1.03.33-4.5-2.08-3.99-3.19.49,1.3,3.79,1.85,4.2.55.17-.55-.5-3.07-.38-4.38.15-1.52,1.89-7.05,1.59-8.01l-1.59-.86c-.13-3.17,6.69-4.41,9.08-4.62,1.97-.18,10.35.12,11.72,1.17,2.8,2.14,1.46,14.52,1.34,17.97-.05,1.58,1.03,4.19-.37,5.64-.37.39-9.69,3.47-10.22,3.36-.41-.08-.75-.84-1.36-1.06-.98-.35-2.62-.22-3.81-.62-1.37-.45-2.82-1.86-3.98-2.48-.39-.21-1.03.13-1.2,0-1.39-1.1.4-4.03.43-5.45ZM102.88,77.01c-.37-.24-.36-1.52-1.98-1.89-1.15-.26-6.62-.57-7.98-.51-3.37.15-3.94,1.99-6.83,2.45-.53.08-1.29.16-.61.79,2.29.3,4.76,1.04,7.06,1.21,1.63.12,11.75.13,11.87-1.81-.49-1.01-1.23-.06-1.52-.24ZM102.39,80.68c-2.43-.4-5.15.75-7.45.72-1.73-.03-3.66-.93-5.27-1.1-.8-.09-.59.09-.58.78,4.18.66,9.93,2.94,13.3-.4ZM86.28,80.68l-1.21.6v9.06h.8c-.44-1.2.4-3.07.4-3.83v-5.84ZM104,92.96c-.04-2.15,0-4.3,0-6.45,0-.07-.4-1.18-.8-1-.72,3-.56,5.95.4,8.86,1.31-.42.4-1.08.4-1.41ZM98.36,98.81c-2.96.34-5.17.6-8.05-.4.31,2.25,2.27,1.25,3.42,1.29.79.02,1.45.46,2.38.32.3-.04,2.13-.75,2.25-1.2Z"/>
      <path class="cls-1" d="M114.35,60.81c-2.44,1.98-9.67,3.61-12.36,1.93-.88-.55-3.95-6.82-4.01-8.09-.24-5.13,7.67-10.33,12.58-9.34,4.25.86,7.63,7.46,6.55,11.6-.18.69-2.23,3.47-2.75,3.89ZM108.74,48.93c-2.83.39-6.24,3.13-6.38,6.17-.12,2.49,3.47,5.46,5.88,5.45,2.07-.01,5.71-4.27,5.86-6.26.21-2.86-2.42-5.75-5.36-5.35Z"/>
      <path class="cls-1" d="M138.52,44.57c4.17-.15,7.88,1.59,9.48,5.61.89,2.24.71,4.19-.2,6.4-1.49,3.62-11.6,6.22-14.61,3.57-.83-.73-3.31-4.44-3.34-5.44s.62-4.44.99-5.42c1.13-3.02,4.6-4.61,7.69-4.72ZM136.37,49.79c-2.85,2.87-2.42,8.19,2.12,8.7,2.9.32,7.77-2.53,6.3-5.91-.26-.6-2.98-3.37-3.57-3.68-1.69-.88-3.56-.41-4.85.89Z"/>
      <path class="cls-1" d="M77.41,82.28l-6.17-4.5c-1.84-1.09-4.43-1-5.51-3.14,1.32.54,2.79.83,4.11,1.32,2.77,1.04,4.56,2.07,6.54,4.34.44.51.68,1.38,1.03,1.98Z"/>
      <path class="cls-1" d="M81.84,84.3l.4,5.64c-2.59-.45-3.04-5.19-.4-5.64Z"/>
      <path class="cls-1" d="M77.41,93.57c.72.8-2.07,2.64-2.59,2.85-1.62.65-3.39.29-5.06.37l4.25-1.18c.72,0,3.02-2.46,3.4-2.03Z"/>
      <path class="cls-1" d="M82.65,80.28c.35.29-3.49,4.78-4.83,3.62-.25-.24,3.71-4.06,4.83-3.62Z"/>
      <path class="cls-1" d="M139.05,111.3c-1.62,1.69-3.11,2.8-5.38,1.6l-.26-.79,3.22-2.82c-1.06.03-5.36,1.9-5.19-.14.21-2.47,4.12-1.12,5.35-.23.89.64.67,2.4,2.25,2.39Z"/>
      <path class="cls-1" d="M133.41,116.93c1-2.89,3.85-1.79,5.63-.2-1.82,2.58-3.38,1.07-5.63.2Z"/>
      <path class="cls-1" d="M129.38,99.61c.22,1.02-.27.7-.76,1.04-.95.66-5.3,2.79-6.09,1.77-.18-.83.41-.93.93-1.28,1.02-.7,4.94-2.43,5.92-1.53Z"/>
      <path class="cls-1" d="M143.48,114.12c-1.8,1.55-3.42,2.78-5.23.59,1.12-2.82,3.19-1.25,5.23-.59Z"/>
      <path class="cls-1" d="M131.4,110.49c.13,1.06-.03.63-.59.81-2.22.71-3.14.05-5.05-1.01,1.95-1.91,3.55-.22,5.64.21Z"/>
      <path class="cls-1" d="M148.32,126.19c.59-1.91,3.28-2.12,4.83-3.22,1.05,1.34-4.46,3.55-4.83,3.22Z"/>
      <path class="cls-1" d="M139.85,126.6c-1.58-.72-3.28-.87-4.91-1.33-.41-.12-1.22-.1-1.12-.68.54-.36,7.42.77,6.04,2.01Z"/>
      <path class="cls-1" d="M151.94,35.55c-1.11.25-.69-.37-.99-.81-3.59-5.2-8.87-11.38-14.36-14.66-14.45-8.63-35.86-3.6-46.27,9.23-3.74,4.62-5.88,12.3-12.9,13.08,2.06-3.7,1.8-8.81,3.86-12.45,6.85-12.08,27.6-18.2,40.67-17.78,6.51.21,10.28,1.87,15.63,5.32,3.42,2.21,7.42,4.98,9.93,8.2,2.13,2.73,4.36,6.34,4.44,9.86ZM129.78,14.61c-3.53-.33-7.59-1.49-11.1-1.23-.69.05-1.33-.05-1.79.63,3.23.16,6.62.17,9.84.63.9.13,3.35,1.66,3.05-.03ZM114.48,13.8c-1.43.12-3.63.24-4.43,1.61,1.29.12,2.46-.08,3.63-.62.61-.28,1,.06.8-.99ZM135.02,16.63l-4.83-1.61c.79,1.48,2.9,1.64,4.3,2.35l.53-.74ZM108.03,15.82c-2.13.41-4.73,1.11-6.72,1.94-3.03,1.26-13.66,6.61-15.2,8.97-.92,1.41-1.95,4.32-2.25,6.01,1.36-1.04,1.88-2.81,3.01-4.04,1.59-1.73,7.71-5.54,10.01-6.91,3.64-2.16,7.76-3.55,11.15-5.97ZM145.09,25.48c.47-.46-2.8-3.7-3.22-3.22-.25,1.89,1.63,2.86,3.22,3.22Z"/>
      <path class="cls-1" d="M78.22,29.92c-1.11,3.17-4.2,10.73-3.54,13.81.15.69.72,1.25.93,1.89.46,1.43.4,4.54,3.4,3.38,5.17-2,7.51-11.38,11.49-15.04,2.69,3.58-1.78,14.1-4.43,16.91-2.83,2.99-9.41,3.18-12.65.97-3.3-2.24-2.05-12.17-.64-15.47.45-1.05,4.04-7.57,5.44-6.44ZM74.19,46.03c-1.29-.48-.89,2.34-.72,2.94.47,1.63,4.99,3.55,6.46,3.44s2.98-1.46,3.93-2.55c-1.42-.4-3.2,1.44-4.58.97-.48-.16-.51-.89-.76-1.06-.5-.33-4.02-.99-4.27-1.38l-.06-2.36Z"/>
      <path class="cls-1" d="M95.14,43.21l-1.6-.4,1.24,1.47-.84,3.36c-.79-.1-.9-2.45-2-1,1.56,1.21,2.09,2.19.6,3.82l-1.81-1.6c.11,2.2,2.88,2.46.59,4.84l-1.8-.81.76,2.13-1.97,1.49c-1.65-2.36.28-3.55,1.27-5.77,2.43-5.46,4.55-11.11,4.37-17.19,2.59,2.76,2.04,6.3,1.2,9.67Z"/>
      <path class="cls-1" d="M156.37,57.31l-.8-4.23-.4-10.27c.64.51,2.32,1.8,2.6,2.43.61,1.36.94,8,.53,9.37-.27.9-1.92,1.47-1.94,2.7Z"/>
      <path class="cls-1" d="M162.42,48.46c1.1,1.2.91,2.17.39,3.61l-1.98-.42c.84-3.8,1.42-7.2-.41-10.85,1.29,1.44,4.99,6.95,2.01,7.66Z"/>
      <path class="cls-1" d="M162.82,52.48l-1.61.81c.41,1.56,2.03,1.01.74,3.16l-1.96.06c2.81,2.35-.8,4.24-.72,1.53.04-1.57,1.17-3.45,1.18-5.1l2.36-.45Z"/>
      <path class="cls-1" d="M83.46,56.91l3.03-1.11c2.24,1.57.51,3.07-1.56,3.46-.87-.52-1.64-1.26-1.47-2.35Z"/>
      <polygon class="cls-1" points="82.61 57.36 83.05 59.73 80.7 59.67 80.23 57.31 82.61 57.36"/>
      <polygon class="cls-1" points="79.4 57.33 79.43 59.73 77.07 59.27 77.01 56.91 79.4 57.33"/>
      <path class="cls-1" d="M82.11,121.11c2.79,2.83-1.09,4.36-3.52,2.82-1.24-2.54,1.33-5.04,3.52-2.82ZM79.47,121.4c-.84.6-.09,2.78,1.36,2.38,1.56-.43.17-3.47-1.36-2.38Z"/>
      <path class="cls-1" d="M92.62,120.25c1.79,1.56-.57,6.25-3.34,3.55-1.41-1.38-.68-2.8.4-4.09l.74-.3c.5.44,1.87.56,2.19.84ZM90.59,120.62c-1.92.54-1.06,3.41.67,3.1,1.41-.26,1.78-3.79-.67-3.1Z"/>
      <path class="cls-1" d="M36.21,77.52c2.21-.47,3.81,1.98,2.89,3.69-2.65,4.92-8.23-2.56-2.89-3.69ZM36.17,78.69c-1,.34-1.04,2.7.37,2.82,2.41.2,1.91-3.58-.37-2.82Z"/>
      <path class="cls-1" d="M47.94,77.93c.8,1.53,1.3,2.63-.12,4-5.38.89-5.75-4.97.12-4ZM45.2,81.07c1.54,1.06,2.95-1.95,1.39-2.4s-1.98,2-1.39,2.4Z"/>
      <path d="M102.88,77.01c.29.19,1.03-.76,1.52.24-.12,1.93-10.24,1.93-11.87,1.81-2.3-.17-4.76-.91-7.06-1.21-.67-.63.08-.7.61-.79,2.9-.46,3.46-2.3,6.83-2.45,1.36-.06,6.82.25,7.98.51,1.62.37,1.61,1.64,1.98,1.89Z"/>
      <path d="M102.39,80.68c-3.37,3.33-9.12,1.06-13.3.4-.01-.69-.22-.87.58-.78,1.61.18,3.54,1.08,5.27,1.1,2.3.03,5.02-1.12,7.45-.72Z"/>
      <path d="M86.28,80.68v5.84c0,.76-.84,2.63-.4,3.83h-.8s0-9.06,0-9.06l1.21-.6Z"/>
      <path d="M104,92.96c0,.32.91.99-.4,1.41-.96-2.91-1.12-5.86-.4-8.86.41-.17.8.94.8,1,0,2.15-.04,4.3,0,6.45Z"/>
      <path d="M98.36,98.81c-.12.45-1.95,1.16-2.25,1.2-.93.14-1.59-.3-2.38-.32-1.15-.03-3.11.97-3.42-1.29,2.88,1,5.1.75,8.05.4Z"/>
      <path d="M108.74,48.93c2.93-.4,5.57,2.49,5.36,5.35-.15,2-3.79,6.25-5.86,6.26-2.41.01-5.99-2.96-5.88-5.45.14-3.04,3.55-5.79,6.38-6.17Z"/>
      <path d="M136.37,49.79c1.29-1.29,3.16-1.77,4.85-.89.59.31,3.31,3.08,3.57,3.68,1.47,3.38-3.4,6.23-6.3,5.91-4.55-.5-4.98-5.83-2.12-8.7Z"/>
      <path d="M108.03,15.82c-3.39,2.42-7.51,3.81-11.15,5.97-2.31,1.37-8.42,5.18-10.01,6.91-1.13,1.23-1.65,3-3.01,4.04.29-1.69,1.33-4.6,2.25-6.01,1.54-2.36,12.17-7.71,15.2-8.97,1.99-.83,4.59-1.52,6.72-1.94Z"/>
      <path d="M129.78,14.61c.3,1.69-2.15.16-3.05.03-3.22-.47-6.61-.48-9.84-.63.46-.67,1.09-.57,1.79-.63,3.51-.26,7.57.91,11.1,1.23Z"/>
      <path d="M145.09,25.48c-1.59-.36-3.47-1.33-3.22-3.22.41-.48,3.68,2.76,3.22,3.22Z"/>
      <path d="M135.02,16.63l-.53.74c-1.4-.71-3.51-.87-4.3-2.35l4.83,1.61Z"/>
      <path d="M114.48,13.8c.19,1.05-.2.71-.8.99-1.17.54-2.34.74-3.63.62.8-1.36,3-1.49,4.43-1.61Z"/>
      <path d="M74.19,46.03l.06,2.36c.25.39,3.77,1.05,4.27,1.38.26.17.28.89.76,1.06,1.38.47,3.16-1.37,4.58-.97-.95,1.09-2.42,2.43-3.93,2.55s-5.99-1.81-6.46-3.44c-.17-.6-.57-3.41.72-2.94Z"/>
      <path d="M79.47,121.4c1.53-1.09,2.93,1.94,1.36,2.38-1.45.4-2.2-1.78-1.36-2.38Z"/>
      <path d="M90.59,120.62c2.45-.7,2.08,2.84.67,3.1-1.73.31-2.59-2.55-.67-3.1Z"/>
      <path d="M36.17,78.69c2.28-.77,2.78,3.02.37,2.82-1.41-.12-1.37-2.48-.37-2.82Z"/>
      <path d="M45.2,81.07c-.59-.4-.11-2.83,1.39-2.4s.15,3.46-1.39,2.4Z"/>
    </g>
    <path d="M74.57,22.4c-.63-2.73,0-5.72,1.7-7.95l-.64-.13c-1.31,2.58-1.85,5.51-1.56,8.39l.69-.25c-1.54-1.7-3.97-2.48-6.22-2.13-.66.1-1.3.29-1.91.58l.39.35c1.98-1.19,4.58-1.1,6.52.12.15.09.38.05.52-.05.11-.08.2-.26.04-.35-2.27-1.43-5.27-1.4-7.56-.02-.12.07-.18.23-.07.33.12.11.33.08.46.02,2.37-1.13,5.39-.48,7.15,1.46.19.21.73.06.69-.25-.28-2.79.26-5.63,1.52-8.12.18-.35-.5-.32-.64-.13-1.8,2.35-2.49,5.45-1.83,8.33.07.31.8.13.72-.19h0Z"/>
    <text class="cls-2" transform="translate(0 40.79)"><tspan x="0" y="0" xml:space="preserve">آیدادر تلاش برای بقا  تو این پودمان</tspan></text>
    <path d="M74.36,21.5c-.15-4.9-1.56-9.93-5.11-13.46-3.1-3.08-7.57-4.65-11.86-3.38-4.05,1.2-7,4.79-6.67,9.12.15,1.97,1.02,3.92,2.59,5.17,1.43,1.14,3.36,1.63,5.17,1.46s3.57-1,4.65-2.48c1.35-1.85,1.63-4.28,1.35-6.5-.53-4.24-3.28-8.13-7.07-10.08s-8.54-1.74-12.29.26-6.32,5.96-6.72,10.29c-.2,2.16.11,4.39.99,6.38.95,2.16,2.48,3.98,3.58,6.06,1.15,2.18,1.56,4.61.61,6.95s-2.92,3.94-5.35,4.37c-1.24.22-2.51.1-3.69-.31-.32-.11-.85.35-.41.5,3.92,1.38,8.41-.45,10.08-4.29.81-1.87.86-3.95.17-5.87-.72-2.03-2.05-3.75-3.17-5.57s-1.94-3.87-2.1-6.08.21-4.26,1.05-6.2c1.69-3.91,5.38-6.59,9.59-7.17s8.46,1.08,11.18,4.42c2.58,3.17,4.09,8.3,1.93,12.08-1.99,3.48-7.25,3.52-9.76.61-2.73-3.17-1.96-8.28,1.17-10.88,3.43-2.85,8.35-2.68,12.01-.38,3.96,2.49,6.19,6.82,6.99,11.33.22,1.22.33,2.45.37,3.69.01.39.75.29.74-.05h0Z"/>
  </g>
</svg>