<?xml version="1.0" encoding="UTF-8"?>
<svg id="Layer_2" data-name="Layer 2" xmlns="http://www.w3.org/2000/svg" viewBox="0 0 32.45 26.88">
  <defs>
    <style>
      .cls-1 {
        fill: #003049;
      }
    </style>
  </defs>
  <g id="Layer_1-2" data-name="Layer 1">
    <g id="uuid-3f364e37-f114-4046-98f8-f27eb07718ee" data-name="Layer 1-2">
      <g>
        <path class="cls-1" d="M16.34,26.87l1.19-.51c4.92-2.93,3.18-9.51-2.83-9.07-2.19.16-3.2,1.31-3.43,3.45l-.33,2.85c-.17-1.5-.1-3.86-1.03-5.11-.81-1.1-2.8-1.27-4.05-1.38-.02-.08.12-.1.18-.11,1.03-.17,2.09-.2,3.04-.69,1.88-.97,1.61-3.97,1.9-5.76.15,1.25.17,2.54.49,3.76.79,3.04,2.77,1.81,5.05,1.58,4.2-.43,6.92,1.27,9.22,4.61,1.54,2.23,2.47,4.24,4.99,5.63l1.72.76h-16.11Z"/>
        <path class="cls-1" d="M22.57,14.98c-1.52-1.19-3.4-1.25-5.16-1.75s-2.7-1.46-3.53-2.96c-1.75-3.14-1.53-7.25.37-10.27l8.33,14.99h-.01Z"/>
        <path class="cls-1" d="M0,26.87l2.1-.89c1.84-.98,2.91-2.84,3.53-4.77.8,2.46,2.2,4.44,4.73,5.31l.96.35H0Z"/>
      </g>
    </g>
  </g>
</svg>