<?xml version="1.0" encoding="UTF-8"?>
<svg id="Layer_2" data-name="Layer 2" xmlns="http://www.w3.org/2000/svg" viewBox="0 0 173.79 16.13">
  <defs>
    <style>
      .cls-1 {
        fill: none;
        stroke: #000;
        stroke-miterlimit: 10;
        stroke-width: .25px;
      }
    </style>
  </defs>
  <g id="Layer_1-2" data-name="Layer 1">
    <g>
      <g>
        <path d="M48.43,11.53h-.02c-.06-.06-.12-.09-.17-.08h0c-.07.02-.11.07-.11.15,0,.09.04.15.11.19.08.04.16.04.23,0,.08-.04.11-.1.1-.16h0c-.03-.08-.07-.11-.13-.1Z"/>
        <path d="M48.58,9.74c-.13-.07-.31-.07-.53,0-.22.07-.36.2-.41.4s-.01.34.12.43c.07.05.13.09.19.12s.13.06.19.08c.12.05.16.13.09.26-.06.12-.07.21-.04.25.02.04.06.06.11.06.04,0,.09-.04.13-.11.04-.06.07-.14.09-.24.02-.09,0-.18-.06-.28-.05-.09-.18-.17-.37-.22-.19-.05-.28-.13-.26-.25,0-.12.08-.22.23-.3.14-.07.26-.1.36-.07.09.03.12.1.09.2-.02.11,0,.17.04.2.05.02.11.02.15,0,.05-.03.07-.11.07-.23s-.07-.23-.21-.3Z"/>
        <path d="M54.96,10.38c.12.05.27.09.42.11s.32.03.48.03.29-.02.39-.04c.11-.02.24-.06.38-.12s.28-.12.4-.2.23-.16.32-.26.13-.19.14-.29c-.49.06-.97.14-1.43.22s-.91.19-1.33.3c.03.1.11.17.23.23Z"/>
        <path d="M65.27,12.04c-.49.18-1,.32-1.54.41-.52.09-1.05.13-1.61.13v-.03c-.08,0-.13-.04-.13-.13s0-.2.02-.32.04-.26.07-.4.03-.27.02-.38-.06-.18-.13-.23-.2-.04-.39.02c-.15.06-.32.14-.5.24s-.38.21-.59.32-.44.23-.69.35-.5.22-.78.31c-.83.25-1.63.41-2.4.5s-1.53.1-2.27.03-1.48-.22-2.2-.45-1.45-.54-2.19-.94c.14.14.26.26.36.36s.18.19.26.26.15.14.23.19.16.11.25.16.21.11.35.17.31.13.51.21c.8.3,1.6.51,2.42.62s1.63.12,2.44.05,1.61-.24,2.39-.5,1.54-.6,2.28-1.03c-.03.12-.05.26-.05.4s.02.27.06.4.12.22.22.3c.09.07.22.11.38.12h0s.02,0,.03,0c0,0,.01,0,.02,0h0c.39,0,.78-.03,1.17-.09.41-.06.81-.14,1.2-.26s.76-.25,1.12-.42.68-.36.97-.57.55-.45.76-.71.38-.54.5-.84c-.37.4-.77.74-1.2,1.03s-.9.52-1.39.7Z"/>
        <path d="M71.6,14.3c-.1,0-.2,0-.28.04s-.16.09-.21.17c-.09.12-.12.25-.09.36s.12.2.27.23c.08.02.16.01.23-.02s.13-.08.18-.14.09-.13.12-.21.04-.15.04-.21-.03-.12-.06-.17-.1-.07-.19-.07Z"/>
        <path d="M78.54,7.26c.8-.39,1.58-.83,2.32-1.33s1.43-1.05,2.06-1.66,1.18-1.27,1.66-1.98.86-1.47,1.14-2.29c-.46.74-.96,1.42-1.52,2.05s-1.15,1.21-1.78,1.75-1.29,1.04-1.99,1.5-1.42.9-2.16,1.32-1.51.81-2.29,1.19-1.57.75-2.36,1.11c.81-.16,1.63-.38,2.47-.66s1.66-.61,2.46-1Z"/>
        <path d="M76.53,9.23c-.05-.06-.12-.08-.21-.08-.09.03-.16.1-.2.2s-.07.24-.09.4-.04.34-.07.55-.06.44-.12.68c-.06.15-.13.32-.2.49s-.17.34-.28.49-.26.29-.44.4c-.17.11-.38.18-.64.21-.23,0-.45-.03-.66-.11-.21-.08-.4-.18-.56-.29s-.29-.22-.38-.34-.15-.2-.17-.27c-.02-.06-.05-.08-.07-.11.11-.11.22-.23.32-.34.17-.17.34-.33.52-.48s.38-.28.61-.38c.09,0,.18-.01.25-.04s.13-.06.18-.11.08-.1.09-.16,0-.12-.03-.18c-.03-.09-.08-.16-.13-.21s-.13-.07-.2-.08-.16,0-.25.03-.18.08-.27.14c-.1.02-.19.04-.26.05s-.14.02-.21.02-.13,0-.21,0-.15,0-.24-.01-.2-.02-.33-.02-.28-.02-.46-.03c-.55-.09-1.01-.07-1.38.06s-.64.35-.82.63-.27.62-.26,1,.1.77.28,1.17c-.07.05-.14.07-.21.06-.04,0-.08,0-.11,0h0c-.18,0-.33-.07-.44-.18s-.19-.27-.24-.47-.08-.42-.08-.67.01-.52.04-.79.06-.55.11-.83.09-.54.14-.78.09-.45.13-.64.07-.32.08-.41c-.35.67-.61,1.27-.78,1.8s-.28,1-.33,1.4-.03.75.04,1.03.17.51.3.68.29.3.47.38c.15.06.31.09.46.09h0s.03,0,.05,0c.01,0,.02,0,.03,0h0c.09,0,.18,0,.26-.01.1,0,.22-.04.34-.11,0,.03.02.07.05.1s.08.08.12.12.08.08.12.12.05.07.05.11c0-.07-.02-.15-.06-.24s-.09-.17-.16-.23c.35-.1.65-.23.91-.38s.5-.31.71-.48c.21-.17.4-.35.57-.53,0,.05,0,.09.02.15,0,.08.02.18.08.28s.13.21.23.32.21.21.35.31.28.19.43.26.31.13.48.17c.14.03.28.04.42.03h0c.23.02.45-.02.65-.1s.38-.21.55-.36.31-.33.45-.54.24-.42.34-.64.17-.44.23-.67.09-.43.11-.62c.03-.16.05-.3.06-.44s.01-.25,0-.35-.04-.18-.09-.23ZM71.72,11.16c-.14.15-.28.3-.4.44-.24.18-.49.34-.73.47s-.49.26-.74.39c-.06-.25-.1-.5-.12-.76s0-.5.07-.72.19-.41.37-.57.44-.25.77-.28c.06,0,.15,0,.27.02s.25.03.4.04.32.03.5.04.36.02.54.02c-.19.16-.36.31-.52.47s-.3.3-.43.43Z"/>
        <path d="M82.99,10.15c.03.1.11.17.23.23s.27.09.42.11.32.03.48.03.29-.02.39-.04c.11-.02.24-.06.38-.12s.28-.12.4-.2.23-.16.32-.26.13-.19.14-.29c-.49.06-.97.14-1.43.22s-.91.19-1.33.3Z"/>
        <path d="M95.62,11.15c.22-.26.38-.54.5-.84-.37.4-.77.74-1.2,1.03s-.9.52-1.39.7-1,.32-1.54.41c-.52.09-1.05.13-1.61.13v-.03c-.08,0-.13-.04-.13-.13s0-.2.02-.32.04-.26.07-.4.03-.27.02-.38-.06-.18-.13-.23-.2-.04-.39.02c-.15.06-.32.14-.5.24s-.38.21-.59.32-.44.23-.69.35-.5.22-.78.31c-.83.25-1.63.41-2.4.5s-1.53.1-2.27.03-1.48-.22-2.2-.45-1.45-.54-2.19-.94c.14.14.26.26.36.36s.18.19.26.26.15.14.23.19.16.11.25.16.21.11.35.17.31.13.51.21c.8.3,1.6.51,2.42.62s1.63.12,2.44.05,1.61-.24,2.39-.5,1.54-.6,2.28-1.03c-.03.12-.05.26-.05.4s.02.27.06.4.12.22.22.3c.09.07.22.11.38.12h0s.02,0,.03,0c0,0,.01,0,.02,0h0c.39,0,.78-.03,1.17-.09.41-.06.81-.14,1.2-.26s.76-.25,1.12-.42.68-.36.97-.57.55-.45.76-.71Z"/>
        <path d="M98.47,12.67c.16-.3.26-.61.29-.94s0-.64-.12-.95c-.11-.23-.23-.4-.36-.51s-.26-.17-.4-.19-.26,0-.39.06-.25.14-.35.25-.2.23-.27.37-.13.28-.16.42-.03.27,0,.4.09.24.19.32.24.14.42.17.41,0,.69-.05c-.06.21-.16.44-.3.67s-.34.45-.59.64-.56.37-.94.51-.82.22-1.34.25h-.74c.53.17,1.02.25,1.48.23s.88-.09,1.25-.23.7-.34.97-.59.49-.52.65-.82ZM97.72,11.75c-.1,0-.2-.02-.28-.05s-.16-.05-.21-.09-.09-.09-.1-.15,0-.14.05-.23.13-.2.25-.32c.09-.12.18-.18.27-.18s.16.05.22.14.1.22.13.37.02.33-.01.51c-.1,0-.2,0-.31-.01Z"/>
        <path d="M101.74,10.53c-.15-.14-.34-.22-.57-.26s-.5-.01-.81.07-.65.25-1.03.5c.13-.04.29-.07.47-.09s.36-.04.54-.04.35.03.52.07.29.12.4.22.16.24.18.4-.02.37-.13.62c-.14.24-.3.45-.47.63s-.35.33-.55.45-.4.24-.61.33-.44.18-.67.26-.46.16-.7.24-.48.17-.72.27c.59.02,1.11-.01,1.58-.1s.87-.22,1.22-.39.64-.36.88-.59.43-.46.56-.7.22-.49.25-.73.02-.46-.04-.66-.16-.37-.31-.5Z"/>
        <path d="M107.68,11.2c.19-.19.43-.38.73-.57s.66-.38,1.07-.56.89-.34,1.42-.47c-.21-.17-.46-.26-.73-.27s-.54.04-.83.13-.56.24-.84.43-.53.39-.76.62-.42.46-.58.7-.27.47-.32.68-.04.4.03.56.24.27.48.33c.06.02.17.03.33.03s.33,0,.52.01.39.02.6.03.39.04.55.09.29.1.39.18.13.17.1.29-.13.27-.31.44-.46.38-.84.63c-.54.34-1.05.59-1.53.75s-.93.25-1.34.27-.76-.05-1.06-.18-.54-.33-.7-.59-.25-.58-.26-.96.08-.81.26-1.28.47-1,.87-1.57.92-1.18,1.56-1.82c-.74.43-1.37.96-1.9,1.56s-.91,1.31-1.16,2.11c-.15.45-.22.86-.21,1.21s.08.66.21.92.31.48.55.65.5.31.8.4.62.14.97.16.7,0,1.06-.06.71-.15,1.06-.27.68-.28.99-.47.58-.4.83-.64.44-.51.59-.8c.14-.26.21-.48.21-.67s-.04-.33-.12-.46-.21-.22-.37-.29-.34-.12-.53-.16-.4-.06-.61-.06-.41,0-.59,0-.35.02-.49.03-.25.02-.31.02c-.14-.02-.22-.09-.25-.19s-.01-.23.06-.39.21-.33.39-.52Z"/>
        <path d="M117.97,9.53c-.1,0-.2,0-.28.04s-.16.09-.21.17c-.09.12-.12.25-.09.36s.12.2.27.23c.08.02.16.01.23-.02s.13-.08.18-.14.09-.13.12-.21.04-.15.04-.21-.03-.12-.06-.17-.1-.07-.19-.07Z"/>
        <path d="M118.12,11.45s-.05.03-.07.1-.05.17-.06.32c-.05.14-.12.26-.19.35s-.16.17-.24.22-.17.09-.25.11-.15.02-.2,0h0c-.08,0-.16-.04-.22-.1-.07-.08-.14-.18-.2-.31s-.12-.27-.19-.43-.14-.32-.23-.47-.2-.3-.34-.44-.3-.25-.5-.34-.44-.15-.71-.17-.61,0-.99.08c-.39.09-.72.2-.98.33s-.45.28-.59.43-.21.31-.23.47,0,.32.08.47.2.29.36.43.36.25.59.34.5.16.79.2.61.05.94.01l.98-.25c-.8-.1-1.47-.22-1.99-.35-.22-.06-.42-.12-.6-.19s-.31-.15-.4-.23-.11-.17-.08-.27.16-.2.38-.31c.41-.21.77-.36,1.08-.42s.57-.08.79-.05.42.11.57.23.29.25.41.41.22.32.32.5.19.34.28.49.2.28.31.38.24.17.39.18v-.03c.1,0,.2-.01.3-.06.12-.05.24-.14.35-.25s.2-.26.27-.43.12-.37.12-.6c0-.12,0-.21-.02-.28s-.04-.1-.06-.1Z"/>
        <path d="M124.98,9.76c-.07-.18-.18-.27-.34-.28s-.33.05-.52.17c-.15.03-.29.04-.42.04s-.26,0-.39-.02-.27-.03-.41-.06-.31-.06-.49-.09c-.52-.11-.96-.11-1.32.01s-.64.33-.83.61-.29.62-.3,1.03.08.83.26,1.28c-.06.06-.12.1-.19.11-.03,0-.06,0-.09,0h0c-.18,0-.33-.06-.44-.18s-.19-.27-.24-.47-.08-.42-.08-.67.01-.52.04-.79.06-.55.11-.83.09-.54.14-.78.09-.45.13-.64.07-.32.08-.41c-.35.67-.61,1.27-.78,1.8s-.28,1-.33,1.4-.03.75.04,1.03.17.51.3.68.29.3.47.38c.15.06.3.09.45.09h0s.04,0,.06,0c.01,0,.03,0,.04,0h0c.09,0,.18,0,.27-.01.12,0,.24-.05.37-.11,0,.03,0,.06.02.07s.03.03.04.05.03.03.04.05.02.04.02.08v-.25c.32-.1.61-.23.87-.38s.48-.31.69-.49.4-.35.58-.54.36-.37.54-.54.37-.34.57-.49.42-.28.67-.38c.06,0,.12-.01.18-.04s.1-.06.14-.11.06-.1.08-.16,0-.12-.02-.18ZM122.63,10.87c-.17.17-.32.32-.45.44s-.25.23-.35.32-.22.18-.35.26-.27.17-.43.26-.37.19-.6.3c-.06-.27-.1-.54-.12-.81s0-.5.07-.72.19-.39.37-.54.44-.23.77-.26c.06,0,.15,0,.26.02s.25.03.4.04.32.03.5.04.36.02.54.02c-.25.24-.45.44-.62.61Z"/>
        <path d="M121.74,7.66c.08.02.16.01.23-.02s.13-.08.18-.14.09-.13.12-.21.04-.15.04-.21-.03-.12-.06-.17-.1-.07-.19-.07c-.1,0-.2,0-.28.04s-.16.09-.21.17c-.09.12-.12.25-.09.36s.12.2.27.23Z"/>
      </g>
      <line class="cls-1" x1="44.77" y1="12.34" y2="12.34"/>
      <line class="cls-1" x1="173.79" y1="12.34" x2="129.02" y2="12.34"/>
    </g>
  </g>
</svg>