<?xml version="1.0" encoding="UTF-8"?>
<svg xmlns="http://www.w3.org/2000/svg" xmlns:xlink="http://www.w3.org/1999/xlink" viewBox="0 0 257.95 66.36">
  <defs>
    <style>
      .cls-1 {
        fill: url(#radial-gradient);
        mix-blend-mode: multiply;
      }

      .cls-2 {
        fill: #fff;
      }

      .cls-3 {
        isolation: isolate;
      }

      .cls-4 {
        fill: #ccae79;
        opacity: .8;
      }

      .cls-5 {
        fill: #ededed;
      }
    </style>
    <radialGradient id="radial-gradient" cx="-895.58" cy="3388.81" fx="-895.58" fy="3388.81" r="61.8" gradientTransform="translate(1998.22 -1104.78) scale(2.09 .34)" gradientUnits="userSpaceOnUse">
      <stop offset="0" stop-color="#000"/>
      <stop offset=".1" stop-color="#2d2d2d"/>
      <stop offset=".23" stop-color="#646464"/>
      <stop offset=".37" stop-color="#939393"/>
      <stop offset=".5" stop-color="#bababa"/>
      <stop offset=".63" stop-color="#d8d8d8"/>
      <stop offset=".76" stop-color="#ededed"/>
      <stop offset=".88" stop-color="#fafafa"/>
      <stop offset="1" stop-color="#fff"/>
    </radialGradient>
  </defs>
  <g class="cls-3">
    <g id="Layer_2" data-name="Layer 2">
      <g id="Layer_1-2" data-name="Layer 1">
        <ellipse class="cls-1" cx="128.98" cy="45.38" rx="128.98" ry="20.98"/>
        <path class="cls-2" d="M20.61,19.2c.04.38.05.77,0,1.12v9.19c.12.14.21.23.25.25-.05.16-.15.34-.25.52v1.61c.05,0,.08.02.14.03.21.02.1.13-.14.28v19.57c1.43.11,2.85-.06,3.98-.76,2.95-2.15,3.92.28,4.69,0,3.05-.59,5.3-3.14,5.21.56,1.36.26.45-1.46,2.92.45,1.95-.97-.31.82.98.68-1.4-.85,1.48.38,1.5.47.47-.14.77-.27.97-.39.07.28.32.71.97,1.33,2.62,2.77,1.93,1.42,2.93,1.8,1.46-.33,1.27,1.36,2.23,1.35,2.27-1.27,4.14-1.3,4.41.08,2.13,1.66,1.06-.68,2.3.02.46-.3,1.68-1.51,1.75-.49.08-.24,1.6-.93,1.33,1.07,1.49.99,2.09,3.44,2.49.1,3.28-.28,5.98-2.43,9.38-2.06,1.52.7,2.58-1.6,3.9-1.32,1.55-1.65,2.77-4.32,4.58-3.12.61-2.45,1.18,1.06,1.79-.06.7-.18.85-.41,1.56-.46,1.46,3.07,2.64,1.27,4-1.38,1.97-2.22,4.8-.74,6.94-.45,2.15.15,3.89,3.11,5.84,1.62,3.12,1.77,6.35,2.45,9.23,3.16,1.11-.17,2.01.08,3.28.65,1.71-1.87,3.27,4.39,4.96.47,1.51,2.26,3.03-.71,4.54-.03,1.71,2.19,3.41-.6,5.08.82,3.12,3.78,6.41,1.28,9.64.6,1.76,1.98,3.19-2.99,4.89-1.77,1.16.17,2.16.15,3.33-.39,1.49-.45,2.94-1.32,4.43-1.6,2.66-3.01,5.07-2.51,7.93-.8,2.46-.4,4.91-1.83,7.37.01,1.81,1.62,3.51-.43,5.33-.48,1.84-.02,3.69.22,5.53-.01,1.84.39,3.69-.96,5.53.03,1.95.04,3.75-.02,5.65.46,1.71.37,2.81-2.47,4.3,1.95,1.24.68,2.34,1.76,4.15,1.58.81.9,2.55-1.16,4.01-.27,2.5-.91,2.47-.78,4.87-.1,2.45-.47,2.93-2.33,4.15.1,5.06.79,3,2.65,9.78-.44,2.27-4.47,2.19.37,7.63-1.02,5.42-.36.04.57,2.87.47,2.54,1.13,3.01-.87,5.81-.04,2.14-.81.38-1.26,3.05.47,1.26.48,3.11-.1,3.87-.31v-27.63c-1.14-.44-1.23-.67,0-.85V7.92H20.61v11.28Z"/>
        <path class="cls-5" d="M20.61,16.65c.04.38.05.77,0,1.12v9.19c.12.14.21.23.25.25-.05.16-.15.34-.25.52v1.61c.05,0,.08.02.14.03.21.02.1.13-.14.28v19.57c1.43.11,2.85-.06,3.98-.76,2.95-2.15,3.92.28,4.69,0,3.05-.59,5.3-3.14,5.21.56,1.36.26.45-1.46,2.92.45,1.95-.97-.31.82.98.68-1.4-.85,1.48.38,1.5.47.47-.14.77-.27.97-.39.07.28.32.71.97,1.33,2.62,2.77,1.93,1.42,2.93,1.8,1.46-.33,1.27,1.36,2.23,1.35,2.27-1.27,4.14-1.3,4.41.08,2.13,1.66,1.06-.68,2.3.02.46-.3,1.68-1.51,1.75-.49.08-.24,1.6-.93,1.33,1.07,1.49.99,2.09,3.44,2.49.1,3.28-.28,5.98-2.43,9.38-2.06,1.52.7,2.58-1.6,3.9-1.32,1.55-1.65,2.77-4.32,4.58-3.12.61-2.45,1.18,1.06,1.79-.06.7-.18.85-.41,1.56-.46,1.46,3.07,2.64,1.27,4-1.38,1.97-2.22,4.8-.74,6.94-.45,2.15.15,3.89,3.11,5.84,1.62,3.12,1.77,6.35,2.45,9.23,3.16,1.11-.17,2.01.08,3.28.65,1.71-1.87,3.27,4.39,4.96.47,1.51,2.26,3.03-.71,4.54-.03,1.71,2.19,3.41-.6,5.08.82,3.12,3.78,6.41,1.28,9.64.6,1.76,1.98,3.19-2.99,4.89-1.77,1.16.17,2.16.15,3.33-.39,1.49-.45,2.94-1.32,4.43-1.6,2.66-3.01,5.07-2.51,7.93-.8,2.46-.4,4.91-1.83,7.37.01,1.81,1.62,3.51-.43,5.33-.48,1.84-.02,3.69.22,5.53-.01,1.84.39,3.69-.96,5.53.03,1.95.04,3.75-.02,5.65.46,1.71.37,2.81-2.47,4.3,1.95,1.24.68,2.34,1.76,4.15,1.58.81.9,2.55-1.16,4.01-.27,2.5-.91,2.47-.78,4.87-.1,2.45-.47,2.93-2.33,4.15.1,5.06.79,3,2.65,9.78-.44,2.27-4.47,2.19.37,7.63-1.02,5.42-.36.04.57,2.87.47,2.54,1.13,3.01-.87,5.81-.04,2.14-.81.38-1.26,3.05.47,1.26.48,3.11-.1,3.87-.31v-27.63c-1.14-.44-1.23-.67,0-.85V5.37H20.61v11.28Z"/>
        <rect class="cls-4" x="11.61" y="7.83" width="62.12" height="18.06" transform="translate(-2.93 11.78) rotate(-15.2)"/>
      </g>
    </g>
  </g>
</svg>